<?xml version="1.0" encoding="UTF-8" standalone="no"?>
<svg width="69px" height="70px" viewBox="0 0 69 70" version="1.1" xmlns="http://www.w3.org/2000/svg" xmlns:xlink="http://www.w3.org/1999/xlink">
    <!-- Generator: Sketch 39.1 (31720) - http://www.bohemiancoding.com/sketch -->
    <title>Page 1</title>
    <desc>Created with Sketch.</desc>
    <defs></defs>
    <g id="Page-1" stroke="none" stroke-width="1" fill="none" fill-rule="evenodd">
        <g id="Nota-comun" transform="translate(-119.000000, -6.000000)">
            <g id="Group-4">
                <g id="Group-3" transform="translate(119.000000, 6.000000)">
                    <g id="Page-1">
                        <polygon id="Path" fill="#FFFFFF" points="47.7549 7.48663102e-05 47.7549 11.3456898 35.0934 11.3456898 33.7974 11.3456898 21.1359 11.3456898 21.1359 7.48663102e-05 0.00015 7.48663102e-05 0.00015 34.2353155 21.335025 69.6646738 34.395525 69.6646738 34.495275 69.6646738 47.555775 69.6646738 68.891025 34.2353155 68.891025 7.48663102e-05"></polygon>
                        <path d="M47.7549,7.48663102e-05 L47.7549,11.3456898 L35.0934,11.3456898 L33.7974,11.3456898 L21.1359,11.3456898 L21.1359,7.48663102e-05 L0.00015,7.48663102e-05 L0.00015,34.2353155 L21.335025,69.6646738 L34.395525,69.6646738 L34.495275,69.6646738 L47.555775,69.6646738 L68.891025,34.2353155 L68.891025,7.48663102e-05 L47.7549,7.48663102e-05 Z M21.1359,12.5398075 L33.7974,12.5398075 L35.0934,12.5398075 L47.7549,12.5398075 L48.95115,12.5398075 L48.95115,11.3456898 L48.95115,1.19419251 L67.694775,1.19419251 L67.694775,33.9040321 L46.879275,68.4701818 L34.495275,68.4701818 L34.395525,68.4701818 L22.0119,68.4701818 L1.1964,33.9040321 L1.1964,1.19419251 L19.93965,1.19419251 L19.93965,11.3456898 L19.93965,12.5398075 L21.1359,12.5398075 Z" id="Fill-1" fill="#DF050B"></path>
                        <path d="M65.6396625,3.1352139 L50.8016625,3.1352139 L50.8016625,14.105 L18.3885375,14.105 L18.3885375,3.1352139 L3.2512875,3.1352139 L3.2512875,34.1373529 L22.7580375,66.5297594 L46.1329125,66.5297594 L65.6396625,34.4360695 L65.6396625,3.1352139 Z M64.4437875,4.32933155 L64.4437875,34.1021658 L45.4594125,65.3356417 L23.4349125,65.3356417 L4.4475375,33.8060695 L4.4475375,4.32933155 L17.1922875,4.32933155 L17.1922875,14.105 L17.1922875,15.2991176 L18.3885375,15.2991176 L50.8016625,15.2991176 L51.9979125,15.2991176 L51.9979125,14.105 L51.9979125,4.32933155 L64.4437875,4.32933155 Z" id="Fill-2" fill="#DF050B"></path>
                        <polygon id="Fill-3" fill="#DF050B" points="14.6301375 41.7619251 15.9040125 40.9810695 20.3732625 48.2457219 19.0993875 49.0269519"></polygon>
                        <path d="M27.32265,40.0066845 L29.5449,38.644492 L26.532525,36.1892513 L26.50215,36.2083422 L27.32265,40.0066845 Z M25.079775,35.3563636 L26.4354,34.5253476 L33.7074,40.0718182 L32.342025,40.9095722 L30.476025,39.4047594 L27.5709,41.1858289 L28.07115,43.5276471 L26.756025,44.3335829 L25.079775,35.3563636 Z" id="Fill-4" fill="#DF050B"></path>
                        <g id="Group-35" transform="translate(6.375000, 3.033583)" fill="#DF050B">
                            <path d="M35.5601625,25.1714385 C34.8330375,24.4680695 33.9169125,24.1888182 32.8567875,24.8386578 C31.2975375,25.7950749 31.4899125,27.5679091 32.3479125,28.9619198 C33.2051625,30.3563048 34.7025375,31.3303155 36.2617875,30.3738984 C37.3935375,29.680262 37.4959125,28.4547005 36.9469125,27.3339519 L38.1904125,26.5718128 C39.1590375,28.3742193 38.6636625,30.3308503 36.9004125,31.4119198 C34.7190375,32.7490321 32.3497875,31.8191925 31.0732875,29.7431497 C29.7967875,27.6678556 30.0367875,25.138123 32.2181625,23.8010107 C33.8659125,22.8049144 35.7172875,22.9172139 36.8340375,24.3905829 L35.5601625,25.1714385 Z" id="Fill-5"></path>
                            <path d="M48.5892375,17.1848877 C47.8621125,16.4815187 46.9459875,16.2022674 45.8858625,16.852107 C44.3266125,17.8081497 44.5189875,19.5813583 45.3766125,20.975369 C46.2342375,22.369754 47.7316125,23.3433904 49.2908625,22.3873476 C50.4226125,21.6937112 50.5246125,20.4681497 49.9756125,19.3474011 L51.2194875,18.585262 C52.1881125,20.3876684 51.6931125,22.3442995 49.9294875,23.425369 C47.7481125,24.7624813 45.3792375,23.8322674 44.1023625,21.7565989 C42.8254875,19.6809305 43.0658625,17.1515722 45.2472375,15.8140856 C46.8946125,14.8183636 48.7463625,14.9306631 49.8631125,16.4036578 L48.5892375,17.1848877 Z" id="Fill-7"></path>
                            <path d="M16.809075,43.0766524 C16.809075,43.6433904 16.3482,44.1034439 15.780825,44.1034439 C15.2127,44.1034439 14.752575,43.6433904 14.752575,43.0766524 C14.752575,42.5095401 15.2127,42.0502353 15.780825,42.0502353 C16.3482,42.0502353 16.809075,42.5095401 16.809075,43.0766524" id="Fill-9"></path>
                            <path d="M29.2576875,35.5128717 C29.2576875,36.0796096 28.7968125,36.5396631 28.2294375,36.5396631 C27.6613125,36.5396631 27.2011875,36.0796096 27.2011875,35.5128717 C27.2011875,34.9457594 27.6613125,34.4864545 28.2294375,34.4864545 C28.7968125,34.4864545 29.2576875,34.9457594 29.2576875,35.5128717" id="Fill-11"></path>
                            <path d="M42.247575,27.5164759 C42.247575,28.0832139 41.787075,28.5432674 41.219325,28.5432674 C40.6512,28.5432674 40.191075,28.0832139 40.191075,27.5164759 C40.191075,26.9493636 40.6512,26.4896845 41.219325,26.4896845 C41.787075,26.4896845 42.247575,26.9493636 42.247575,27.5164759" id="Fill-13"></path>
                            <path d="M55.3458375,19.4124225 C55.3458375,19.9791604 54.8849625,20.4392139 54.3175875,20.4392139 C53.7494625,20.4392139 53.2893375,19.9791604 53.2893375,19.4124225 C53.2893375,18.8453102 53.7494625,18.385631 54.3175875,18.385631 C54.8849625,18.385631 55.3458375,18.8453102 55.3458375,19.4124225" id="Fill-15"></path>
                            <polygon id="Fill-17" points="55.9863375 5.9635508 55.9863375 0.101518717 47.4123375 0.101518717 47.4123375 11.2592193"></polygon>
                            <polygon id="Fill-19" points="47.412225 27.6978021 47.412225 50.9029893 55.986225 36.7966791 55.986225 22.402508"></polygon>
                            <polygon id="Fill-21" points="40.3333875 15.631262 40.3333875 11.0711551 31.7593875 11.0711551 31.7593875 20.9265561"></polygon>
                            <polygon id="Fill-23" points="31.759275 37.3658877 31.759275 63.4961016 39.758025 63.4961016 40.333275 62.5494171 40.333275 32.0702193"></polygon>
                            <polygon id="Fill-25" points="24.3816 25.4835936 24.3816 11.0714545 15.807975 11.0714545 15.807975 30.7788877"></polygon>
                            <polygon id="Fill-27" points="15.8078625 47.2180321 15.8078625 62.5405455 16.3831125 63.4962139 24.3814875 63.4962139 24.3814875 41.9223636"></polygon>
                            <polygon id="Fill-29" points="8.7289875 35.1511551 8.7289875 0.101743316 0.1549875 0.101743316 0.1549875 36.5481604 1.8661125 39.3897112"></polygon>
                            <polygon id="Fill-31" points="2.4708375 40.3940053 59.2645875 5.31614439 59.2645875 3.93860428 1.8663375 39.3896738"></polygon>
                            <polygon id="Fill-33" points="59.2646625 18.9995348 8.4772875 50.3681444 9.0821625 51.3721016 59.2646625 20.3774492"></polygon>
                        </g>
                    </g>
                </g>
            </g>
        </g>
    </g>
</svg>