<?xml version="1.0" encoding="iso-8859-1"?>
<!-- Generator: Adobe Illustrator 18.0.0, SVG Export Plug-In . SVG Version: 6.00 Build 0)  -->
<!DOCTYPE svg PUBLIC "-//W3C//DTD SVG 1.1//EN" "http://www.w3.org/Graphics/SVG/1.1/DTD/svg11.dtd">
<svg version="1.1" id="Capa_1" xmlns="http://www.w3.org/2000/svg" xmlns:xlink="http://www.w3.org/1999/xlink" x="0px" y="0px"
	 viewBox="0 0 491.643 491.643" style="enable-background:new 0 0 491.643 491.643;" xml:space="preserve">
<g>
	<path d="M430.408,271.514c10.1-9.835,10.314-26.053,0.48-36.152l-67.693-69.516c-12.35-13.627-31.646-22.299-52.394-22.299
		c-9.82,0-19.304,1.943-27.884,5.416l-119.963-0.072c-0.007,0-0.013,0-0.02,0c-14.087,0-25.555,11.457-25.565,25.546
		c-0.005,6.431,2.35,12.5,6.653,17.221c-6.518,2.279-11.215,8.474-11.215,15.76c0,2.347,1.902,4.25,4.25,4.25
		c2.348,0,4.25-1.903,4.25-4.25c0-4.525,3.682-8.206,8.206-8.206s8.206,3.681,8.206,8.206s-3.682,8.207-8.206,8.207
		c-2.348,0-4.25,1.903-4.25,4.25v14.282c-5.787-1.439-10.518-5.765-12.378-11.66c-0.351-1.112-1.145-2.032-2.193-2.543
		c-1.049-0.511-2.262-0.567-3.354-0.157c-7.586,2.851-14.475,7.169-19.922,12.488c-0.898,0.876-1.362,2.104-1.27,3.356
		c0.058,0.78,0.35,1.505,0.793,2.129c-6.27,1.152-11.039,6.648-11.039,13.245c0,2.347,1.902,4.25,4.25,4.25
		c2.348,0,4.25-1.903,4.25-4.25c0-2.744,2.232-4.977,4.977-4.977h3.559c0.313,1.131,0.494,2.304,0.494,3.499
		c0,7.323-5.957,13.281-13.28,13.281c-1.153,0-2.34-0.165-3.526-0.492c-2.235-0.616-4.553,0.676-5.205,2.902L53.689,393.899
		c-0.377,1.285-0.126,2.672,0.677,3.743c0.802,1.072,2.063,1.703,3.401,1.703h183.494c1.339,0,2.6-0.631,3.401-1.702
		c0.803-1.072,1.054-2.459,0.677-3.743l-9.363-31.94h11.058v100.572c0,16.052,13.061,29.112,29.113,29.112
		c16.052,0,29.111-13.06,29.111-29.112V361.959h11.055v100.572c0,16.052,13.06,29.112,29.112,29.112
		c16.053,0,29.112-13.06,29.112-29.112V361.959h46.246c1.339,0,2.6-0.631,3.401-1.702c0.803-1.072,1.054-2.458,0.677-3.743
		l-23.561-80.374c3.543,1.736,7.406,2.612,11.275,2.612C419.009,278.751,425.447,276.346,430.408,271.514z M367.015,189.397
		l42.222,144.03H227.612l-7.637-26.052l11.419-38.944h112.208c2.348,0,4.25-1.903,4.25-4.25s-1.902-4.25-4.25-4.25H233.887
		l20.695-70.577c6.09-21.618,29.733-37.308,56.22-37.308C337.216,152.046,360.853,167.741,367.015,189.397z M162.936,157.39
		c0.004,0,0.009,0,0.013,0l104.7,0.068c-10.282,7.587-17.933,17.82-21.236,29.548l-1.346,4.588l-82.145-0.073
		c-4.559-0.003-8.843-1.781-12.064-5.007c-3.22-3.226-4.991-7.513-4.988-12.071C145.877,165.036,153.531,157.39,162.936,157.39z
		 M166.221,207.417c0-2.657-0.64-5.162-1.748-7.394l78.104,0.069l-27.029,92.178l-7.896-26.935
		c-0.641-2.186-2.896-3.479-5.103-2.929c-1.114,0.276-2.164,0.411-3.21,0.411c-7.323,0-13.281-5.958-13.281-13.281
		c0-1.204,0.177-2.374,0.483-3.499h3.11c2.744,0,4.977,2.233,4.977,4.977c0,2.347,1.902,4.25,4.25,4.25s4.25-1.903,4.25-4.25
		c0-6.497-4.622-11.936-10.751-13.199c0.38-0.596,0.627-1.271,0.675-1.991c0.082-1.233-0.376-2.44-1.257-3.308
		c-5.485-5.409-12.438-9.799-20.106-12.696c-1.091-0.412-2.306-0.358-3.356,0.151c-1.05,0.509-1.845,1.428-2.197,2.541
		c-1.863,5.884-6.59,10.204-12.37,11.642v-10.579C160.925,221.691,166.221,215.161,166.221,207.417z M63.442,390.845l4.779-16.3
		h95.697c2.348,0,4.25-1.903,4.25-4.25c0-2.347-1.902-4.25-4.25-4.25H70.715l1.759-6h24.445c2.348,0,4.25-1.903,4.25-4.25
		c0-2.347-1.902-4.25-4.25-4.25H74.966l23.544-80.292c0.549,0.043,1.096,0.065,1.641,0.065c12.01,0,21.78-9.771,21.78-21.781
		c0-5.211-1.896-10.218-5.225-14.123c2.959-2.355,6.283-4.405,9.855-6.075c4.418,8.43,13.153,13.837,22.952,13.837
		c9.786,0,18.516-5.397,22.939-13.812c3.672,1.724,7.085,3.848,10.109,6.292c-3.222,3.862-5.004,8.717-5.004,13.881
		c0,12.01,9.771,21.781,21.781,21.781c0.397,0,0.797-0.012,1.198-0.036l35.05,119.563H63.442z M296.759,462.531
		c0,11.365-9.246,20.612-20.611,20.612c-2.079,0-4.085-0.316-5.978-0.891v-68.591c0-2.347-1.902-4.25-4.25-4.25
		c-2.348,0-4.25,1.903-4.25,4.25v63.521c-3.783-3.739-6.135-8.924-6.135-14.65V361.959h41.225V462.531z M366.038,462.531
		c0,7.843-4.405,14.673-10.869,18.156v-71.294c0-2.347-1.902-4.25-4.25-4.25c-2.348,0-4.25,1.903-4.25,4.25v73
		c0,0.234,0.032,0.46,0.069,0.684c-0.437,0.028-0.869,0.066-1.313,0.066c-11.365,0-20.612-9.247-20.612-20.612V361.959h41.225
		V462.531z M233.484,353.459l-3.38-11.532h181.624l3.381,11.532H233.484z M400.336,265.094l-3.242-3.307l-20.787-70.91
		l48.492,50.415c6.564,6.742,6.421,17.568-0.32,24.133C417.737,271.989,406.91,271.846,400.336,265.094z"/>
	<path d="M224.892,118.528c0.344-0.022,34.59-2.172,48.705,8.673c0.049,0.037,0.102,0.063,0.151,0.097
		c10.059,8.368,22.977,13.41,37.053,13.41c13.675,0,26.609-4.927,36.688-13.103c0.093-0.058-0.09,0.066,0,0
		c15.688-11.554,53.711-9.104,54.088-9.078c2.199,0.151,4.126-1.373,4.492-3.528c6.152-36.254-7.665-67.478-39.957-90.295
		C342.512,8.029,317.555,1.724,315.756,1.283C313.462,0.66,309.217,0,306.468,0c-8.411,0-13.955,3.913-17.93,8.024
		c-2.621-0.905-5.348-1.37-8.144-1.37c-6.64,0-12.895,2.535-17.633,7.141c-1.524,1.301-14.537,12.628-26.171,30.076
		c-16.282,24.422-21.849,49.138-16.099,71.477C221.003,117.328,222.864,118.672,224.892,118.528z M261.276,82.683
		c0-13.619,5.554-26.476,15.329-35.807c14.837,14.221,45.746,40.174,81.824,49.395c-5.99,21.029-25.451,35.937-47.628,35.937
		C283.493,132.208,261.276,109.991,261.276,82.683z M268.36,20.192c0.086-0.072,0.168-0.147,0.248-0.226
		c3.15-3.103,7.337-4.812,11.786-4.812c2.571,0,5.062,0.588,7.402,1.748c1.785,0.885,3.881,0.389,5.115-1.063l0.018-0.001
		c4.404-5.212,8.326-7.337,13.538-7.337c1.729,0,5.309,0.502,7.094,0.995c0.045,0.013,0.091,0.024,0.136,0.035
		c0.246,0.059,24.85,6.105,47.51,22.116c28.733,20.302,41.182,46.601,37.042,78.21c-7.373-0.251-23.677-0.291-38.065,3.273
		c2.858-4.61,5.083-9.667,6.564-15.058c4.883,0.864,9.839,1.402,14.849,1.534c0.038,0.001,0.075,0.002,0.113,0.002
		c2.296,0,4.186-1.83,4.247-4.139c0.062-2.346-1.791-4.298-4.138-4.36c-55.959-1.468-107.671-58.83-108.186-59.409
		c-1.561-1.753-4.247-1.909-6-0.349c-1.753,1.56-1.91,4.245-0.351,5.999c0.285,0.321,1.421,1.584,3.301,3.533
		c-11.357,10.919-17.807,25.917-17.807,41.801c0,11.043,3.104,21.373,8.48,30.17c-12.754-3.095-26.788-3.153-33.293-2.965
		C218.597,62.762,267.851,20.621,268.36,20.192z"/>
	<path d="M193.669,370.294c0,2.347,1.902,4.25,4.25,4.25h10c2.348,0,4.25-1.903,4.25-4.25c0-2.347-1.902-4.25-4.25-4.25h-10
		C195.571,366.044,193.669,367.947,193.669,370.294z"/>
</g>
<g>
</g>
<g>
</g>
<g>
</g>
<g>
</g>
<g>
</g>
<g>
</g>
<g>
</g>
<g>
</g>
<g>
</g>
<g>
</g>
<g>
</g>
<g>
</g>
<g>
</g>
<g>
</g>
<g>
</g>
</svg>
