<?xml version="1.0" encoding="iso-8859-1"?>
<!-- Generator: Adobe Illustrator 17.1.0, SVG Export Plug-In . SVG Version: 6.00 Build 0)  -->
<!DOCTYPE svg PUBLIC "-//W3C//DTD SVG 1.1//EN" "http://www.w3.org/Graphics/SVG/1.1/DTD/svg11.dtd">
<svg version="1.1" id="Capa_1" xmlns="http://www.w3.org/2000/svg" xmlns:xlink="http://www.w3.org/1999/xlink" x="0px" y="0px"
	 viewBox="0 0 512 512" style="enable-background:new 0 0 512 512;" xml:space="preserve">
<g>
	<path d="M415.958,143.747c-0.01,0-0.022,0-0.032,0l-32.737,0.044c-1.663-4.38-3.545-8.692-5.648-12.868
		c-5.928-11.77-17.756-19.074-30.882-19.074c-0.015,0-0.033,0-0.048,0l-26.721,0.036c-13.512-17.952-33.803-29.321-56.007-31.512
		l-0.054-40.39l15.994-0.021c4.418-0.006,7.995-3.593,7.989-8.011c-0.006-4.415-3.586-7.989-8-7.989c-0.004,0-0.008,0-0.011,0
		l-15.994,0.021l-0.021-15.994c-0.006-4.415-3.586-7.989-8-7.989c-0.003,0-0.007,0-0.011,0c-4.418,0.006-7.995,3.593-7.989,8.011
		l0.021,15.994l-15.994,0.021c-4.418,0.006-7.995,3.593-7.989,8.011c0.006,4.415,3.586,7.989,8,7.989c0.004,0,0.008,0,0.011,0
		l15.994-0.021l0.054,40.391c-22.198,2.25-42.459,13.674-55.921,31.661l-26.722,0.036c-13.144,0.018-24.974,7.356-30.875,19.151
		c-2.093,4.183-3.965,8.502-5.618,12.89l-32.736,0.044c-6.409,0.009-12.432,2.513-16.958,7.051
		c-4.526,4.539-7.014,10.568-7.005,16.978c0.014,10.48,6.782,19.398,16.17,22.647c3.31,81.458,64.881,148.111,144.033,159.371
		l0.11,81.696c-17.64,0.024-31.971,14.394-31.949,32.034l-15.995,0.021c-17.641,0.024-31.973,14.396-31.949,32.036l0.011,7.999
		c0.003,2.122,0.849,4.155,2.351,5.653c1.5,1.496,3.531,2.336,5.649,2.336c0.003,0,0.007,0,0.011,0l191.95-0.259
		c4.418-0.006,7.995-3.593,7.989-8.011l-0.011-7.998c-0.024-17.627-14.372-31.95-31.993-31.95c-0.014,0-0.029,0-0.043,0
		l-15.995,0.021c-0.012-8.545-3.351-16.574-9.401-22.608c-6.041-6.024-14.061-9.34-22.589-9.34c-0.015,0-0.03,0-0.045,0
		l-0.11-81.674c35.752-5.132,68.746-21.593,94.705-47.623c30.104-30.186,47.314-69.797,48.902-112.159
		c9.378-3.275,16.121-12.21,16.107-22.689C439.937,154.49,429.175,143.747,415.958,143.747z M255.903,95.979c0.03,0,0.059,0,0.088,0
		c15.749,0,30.685,5.774,42.23,15.934l-84.594,0.114C225.165,101.818,240.119,96,255.903,95.979z M148.672,138.403
		c3.177-6.35,9.534-10.301,16.588-10.311l30.805-0.042c0.007,0,0.013,0.001,0.02,0.001c0.008,0,0.016-0.001,0.025-0.001
		l119.631-0.161c0.017,0,0.034,0,0.052,0l30.839-0.042c0.009,0,0.017,0,0.026,0c7.045,0,13.401,3.934,16.593,10.271
		c0.94,1.868,1.816,3.773,2.66,5.694l-219.885,0.296C146.864,142.186,147.735,140.275,148.672,138.403z M280.372,447.855
		c0.008,0,0.015,0,0.023,0c4.263,0,8.272,1.657,11.291,4.668c3.025,3.017,4.694,7.031,4.7,11.302l-8,0.011
		c-4.418,0.006-7.995,3.593-7.989,8.011c0.006,4.415,3.586,7.989,8,7.989c0.003,0,0.007,0,0.011,0l15.998-0.021c0,0,0.001,0,0.002,0
		l23.995-0.032c0.007,0,0.014,0,0.021,0c8.808,0,15.98,7.159,15.993,15.97l-175.95,0.237c-0.011-8.817,7.153-16.001,15.971-16.014
		l23.993-0.032c0,0,0.001,0,0.001,0l47.986-0.064c4.418-0.006,7.995-3.593,7.989-8.011c-0.006-4.415-3.586-7.989-8-7.989
		c-0.003,0-0.007,0-0.011,0l-39.986,0.054c-0.011-8.817,7.153-16.001,15.971-16.013l7.998-0.011h0.001L280.372,447.855z
		 M248.251,351.727c2.575,0.118,5.162,0.186,7.766,0.186c0.074,0,0.157,0,0.23,0c2.676-0.003,5.341-0.073,7.995-0.201l0.108,80.166
		l-15.992,0.021L248.251,351.727z M415.969,175.739l-31.992,0.043c-4.418,0.006-7.995,3.593-7.989,8.011
		c0.006,4.415,3.586,7.989,8,7.989c0.004,0,0.008,0,0.011,0l23.782-0.032c-1.886,37.585-17.392,72.667-44.164,99.51
		c-28.663,28.739-66.801,44.597-107.391,44.651c-0.072,0-0.137,0-0.208,0c-81.009-0.003-147.455-63.744-151.733-143.753
		l199.732-0.269c4.418-0.006,7.995-3.593,7.989-8.011c-0.006-4.415-3.586-7.989-8-7.989c-0.004,0-0.008,0-0.011,0l-207.943,0.28
		c-0.003,0-0.007,0-0.011,0c-4.404,0-7.99-3.58-7.996-7.985c-0.003-2.136,0.826-4.145,2.334-5.657s3.515-2.347,5.65-2.35
		l38.357-0.052c0.004,0,0.007,0.001,0.011,0.001c0.004,0,0.007-0.001,0.011-0.001l242.319-0.326
		c0.586,0.063,1.183,0.068,1.784-0.002l37.434-0.05c0.003,0,0.007,0,0.011,0c2.132,0,4.137,0.829,5.646,2.335
		c1.512,1.508,2.347,3.515,2.35,5.65C423.96,172.141,420.377,175.733,415.969,175.739z"/>
	<path d="M351.997,175.825c-0.003,0-0.007,0-0.011,0l-15.998,0.021c-4.418,0.006-7.995,3.593-7.989,8.011
		c0.006,4.415,3.586,7.989,8,7.989c0.003,0,0.007,0,0.011,0l15.998-0.021c4.418-0.006,7.995-3.593,7.989-8.011
		C359.991,179.399,356.411,175.825,351.997,175.825z"/>
</g>
<g>
</g>
<g>
</g>
<g>
</g>
<g>
</g>
<g>
</g>
<g>
</g>
<g>
</g>
<g>
</g>
<g>
</g>
<g>
</g>
<g>
</g>
<g>
</g>
<g>
</g>
<g>
</g>
<g>
</g>
</svg>
