<?xml version="1.0" encoding="iso-8859-1"?>
<!-- Generator: Adobe Illustrator 19.0.0, SVG Export Plug-In . SVG Version: 6.00 Build 0)  -->
<svg version="1.1" id="Layer_1" xmlns="http://www.w3.org/2000/svg" xmlns:xlink="http://www.w3.org/1999/xlink" x="0px" y="0px"
	 viewBox="0 0 512 512" style="enable-background:new 0 0 512 512;" xml:space="preserve">
<g>
	<g>
		<path d="M327.525,456.45h-83.579v-24.255h98.439c4.755,0,8.61-3.855,8.61-8.61s-3.855-8.61-8.61-8.61h-98.439v-24.255h98.439
			c4.755,0,8.61-3.855,8.61-8.61c0-4.755-3.855-8.61-8.61-8.61h-98.439v-24.253h98.439c4.755,0,8.61-3.855,8.61-8.61
			s-3.855-8.61-8.61-8.61h-98.439v-24.255h98.439c4.755,0,8.61-3.855,8.61-8.61s-3.855-8.61-8.61-8.61h-98.439v-20.809h98.439
			c4.755,0,8.61-3.855,8.61-8.61s-3.855-8.61-8.61-8.61h-98.439v-27.699h98.439c4.755,0,8.61-3.855,8.61-8.61s-3.855-8.61-8.61-8.61
			h-98.439v-24.255h98.439c4.755,0,8.61-3.855,8.61-8.61s-3.855-8.61-8.61-8.61h-98.439v-24.253h98.439
			c4.755,0,8.61-3.855,8.61-8.61s-3.855-8.61-8.61-8.61h-98.439v-24.256h98.439c4.755,0,8.61-3.855,8.61-8.61s-3.855-8.61-8.61-8.61
			h-98.439V58.929h81.889c16.246,0,29.465-13.218,29.465-29.465C355.3,13.218,342.083,0,325.835,0H184.827
			C169.318,0,156.7,12.619,156.7,28.128V80.55c0,4.755,3.855,8.61,8.61,8.61s8.61-3.855,8.61-8.61V28.128
			c0-6.014,4.894-10.908,10.908-10.908h141.009c6.751,0,12.245,5.493,12.245,12.246s-5.493,12.245-12.245,12.245h-90.5
			c-4.755,0-8.61,3.855-8.61,8.61v406.867c0,9.089,7.394,16.483,16.483,16.483h84.316c5.82,0,10.556,4.735,10.556,10.555
			c0,5.819-4.735,10.556-10.556,10.556H184.827c-6.014,0-10.908-4.894-10.908-10.908V126.278c0-4.755-3.855-8.61-8.61-8.61
			s-8.61,3.855-8.61,8.61v357.594c0,15.509,12.619,28.128,28.128,28.128h142.698c15.315,0,27.775-12.46,27.775-27.775
			C355.3,468.909,342.84,456.45,327.525,456.45z"/>
	</g>
</g>
<g>
</g>
<g>
</g>
<g>
</g>
<g>
</g>
<g>
</g>
<g>
</g>
<g>
</g>
<g>
</g>
<g>
</g>
<g>
</g>
<g>
</g>
<g>
</g>
<g>
</g>
<g>
</g>
<g>
</g>
</svg>
