<?xml version="1.0" encoding="iso-8859-1"?>
<!-- Generator: Adobe Illustrator 19.1.0, SVG Export Plug-In . SVG Version: 6.00 Build 0)  -->
<svg version="1.1" id="Capa_1" xmlns="http://www.w3.org/2000/svg" xmlns:xlink="http://www.w3.org/1999/xlink" x="0px" y="0px"
	 viewBox="0 0 546.982 546.982" style="enable-background:new 0 0 546.982 546.982;" xml:space="preserve">
<g>
	<g>
		<path d="M273.491,0C124.314,0,0,121.828,0,273.491s121.828,273.491,273.491,273.491s273.491-121.828,273.491-273.491
			S422.668,0,273.491,0z M273.491,519.633c-136.746,0-248.628-111.883-248.628-248.628S136.746,22.377,273.491,22.377
			s248.628,111.883,248.628,248.628S410.237,519.633,273.491,519.633z"/>
		<circle cx="236.197" cy="183.985" r="22.377"/>
		<circle cx="370.456" cy="261.06" r="24.863"/>
		<path d="M308.299,179.012c-17.404-49.726-64.643-87.02-119.342-87.02c-69.616,0-126.8,57.185-126.8,126.8
			s57.184,126.8,126.8,126.8c52.212,0,94.479-29.835,114.369-74.589c14.918,34.808,49.726,57.185,89.506,57.185
			c54.698,0,99.451-44.753,99.451-99.451s-44.753-99.451-99.451-99.451C355.538,131.773,325.703,151.663,308.299,179.012z
			 M188.957,323.217c-57.184,0-101.938-44.753-101.938-101.938s44.753-101.938,101.938-101.938s101.938,44.753,101.938,101.938
			C290.895,275.977,243.656,323.217,188.957,323.217z M467.421,231.224c0,42.267-32.322,74.588-74.588,74.588
			s-74.588-32.322-74.588-74.588s32.322-74.588,74.588-74.588S467.421,188.957,467.421,231.224z"/>
		<path d="M420.182,402.778c-7.459-2.486-191.444-77.075-266.032-12.431c-4.973,4.973-4.973,12.431,0,17.404
			c4.973,4.973,12.431,4.973,17.404,0c4.973-4.973,12.431-7.459,19.89-12.431v32.322c0,17.404,9.945,54.698,34.808,54.698h34.808
			c22.377,0,29.835-27.349,29.835-54.698v-37.294c47.239,7.459,96.965,22.377,121.828,34.808c2.486,0,2.486,0,4.973,0
			c4.973,0,9.945-2.486,12.431-7.459C430.127,410.237,427.641,405.264,420.182,402.778z M266.032,427.641
			c0,14.918-4.973,27.349-4.973,29.835h-34.808c-2.486-2.486-9.945-17.404-9.945-29.835V387.86c14.918-2.486,32.322-2.486,49.726,0
			V427.641z"/>
	</g>
</g>
<g>
</g>
<g>
</g>
<g>
</g>
<g>
</g>
<g>
</g>
<g>
</g>
<g>
</g>
<g>
</g>
<g>
</g>
<g>
</g>
<g>
</g>
<g>
</g>
<g>
</g>
<g>
</g>
<g>
</g>
</svg>
