<?xml version="1.0" encoding="iso-8859-1"?>
<!-- Generator: Adobe Illustrator 16.0.0, SVG Export Plug-In . SVG Version: 6.00 Build 0)  -->
<!DOCTYPE svg PUBLIC "-//W3C//DTD SVG 1.1//EN" "http://www.w3.org/Graphics/SVG/1.1/DTD/svg11.dtd">
<svg version="1.1" id="Capa_1" xmlns="http://www.w3.org/2000/svg" xmlns:xlink="http://www.w3.org/1999/xlink" x="0px" y="0px"
	 width="46.429px" height="46.429px" viewBox="0 0 46.429 46.429" style="enable-background:new 0 0 46.429 46.429;"
	 xml:space="preserve">
<g>
	<g>
		<path d="M32.751,0C25.575,0,19.72,3.813,19.325,8.613c-0.021,0.248-0.121,0.482-0.286,0.669l-2.03,2.276
			c-0.277,0.309-0.363,0.744-0.229,1.135c0.135,0.392,0.47,0.681,0.878,0.755l3.512,0.639c0.223,0.041,0.425,0.145,0.588,0.301
			c2.437,2.34,6.448,3.871,10.994,3.871c7.435,0,13.459-4.087,13.459-9.128C46.21,4.088,40.187,0,32.751,0z M28.053,10.439
			c-0.724,0-1.31-0.586-1.31-1.309c0-0.724,0.586-1.311,1.31-1.311c0.726,0,1.31,0.587,1.31,1.311
			C29.362,9.852,28.776,10.439,28.053,10.439z M32.243,10.439c-0.723,0-1.311-0.586-1.311-1.309c0-0.724,0.588-1.311,1.311-1.311
			c0.725,0,1.312,0.587,1.312,1.311C33.555,9.852,32.968,10.439,32.243,10.439z M36.437,10.439c-0.726,0-1.312-0.586-1.312-1.309
			c0-0.724,0.586-1.311,1.312-1.311c0.723,0,1.31,0.587,1.31,1.311C37.745,9.852,37.157,10.439,36.437,10.439z"/>
		<g>
			<path d="M15.468,16.067c-0.002,0-12.331-0.004-13.209-0.004c0,0-0.005,0-0.006,0c-1.122,0-2.038,0.931-2.035,2.054l0.044,12.718
				c0.005,1.12,0.913,2.05,2.029,2.05c0.003,0,0.006,0,0.008,0c0.631,0,1.195-0.314,1.565-0.771L4.666,44.49
				c0.071,1.106,0.99,1.938,2.1,1.938h4.184c1.107,0,2.025-0.842,2.098-1.948l0.798-12.402c0.372,0.482,0.935,0.806,1.567,0.806
				c0.002,0,0.003,0,0.008,0c1.116,0,2.024-0.946,2.031-2.058l0.042-12.697C17.497,17.018,16.59,16.067,15.468,16.067z"/>
			<circle cx="8.858" cy="9.085" r="5.625"/>
		</g>
	</g>
</g>
<g>
</g>
<g>
</g>
<g>
</g>
<g>
</g>
<g>
</g>
<g>
</g>
<g>
</g>
<g>
</g>
<g>
</g>
<g>
</g>
<g>
</g>
<g>
</g>
<g>
</g>
<g>
</g>
<g>
</g>
</svg>
