<?xml version="1.0" encoding="iso-8859-1"?>
<!-- Generator: Adobe Illustrator 19.0.0, SVG Export Plug-In . SVG Version: 6.00 Build 0)  -->
<svg version="1.1" id="Layer_1" xmlns="http://www.w3.org/2000/svg" xmlns:xlink="http://www.w3.org/1999/xlink" x="0px" y="0px"
	 viewBox="0 0 512 512" style="enable-background:new 0 0 512 512;" xml:space="preserve">
<g>
	<g>
		<path d="M470.523,172.242c-22.97-37.518-54.015-75.873-110.1-75.873c-38.69,0-65.462,18.25-85.889,41.885
			c-3.934-8.098-8.224-15.951-12.845-23.498c-22.971-37.519-54.016-75.874-110.1-75.874c-56.094,0-87.139,38.354-110.11,75.872
			C9.973,166.2-5.289,231.636,1.65,285.529c6.046,46.934,27.831,83.549,63,105.889c33.166,21.066,68.705,24.213,86.938,24.213
			c13.312,0,44.563-1.929,75.462-17.686c10.904,21.084,26.522,38.313,46.435,50.961c33.166,21.066,68.705,24.213,86.938,24.213
			c18.233,0,53.771-3.146,86.933-24.213c35.165-22.339,56.948-58.955,62.994-105.89
			C517.288,289.125,502.028,223.689,470.523,172.242z M210.485,343.018c1.208,9.379,3.055,18.337,5.501,26.86
			c-25.876,14.078-53.053,15.751-64.398,15.751c-12.056,0-43.094-1.903-70.852-19.535c-27.793-17.654-44.391-46.049-49.33-84.396
			c-6.105-47.424,7.557-105.39,35.659-151.276c22.614-36.937,45.644-61.538,84.523-61.538c38.87,0,61.898,24.601,84.513,61.539
			c6.864,11.209,12.908,23.193,18.038,35.699c-1.299,2.038-2.577,4.08-3.826,6.12C218.809,223.688,203.547,289.125,210.485,343.018z
			 M480.594,339.185c-4.939,38.348-21.535,66.743-49.325,84.397c-27.755,17.631-58.791,19.535-70.846,19.535
			c-12.057,0-43.094-1.903-70.852-19.535c-27.793-17.654-44.391-46.049-49.33-84.395c-6.104-47.425,7.558-105.39,35.659-151.276
			c22.614-36.937,45.643-61.538,84.523-61.538c38.871,0,61.899,24.601,84.513,61.538l0.001,0.001
			C473.036,233.796,486.7,291.761,480.594,339.185z"/>
	</g>
</g>
<g>
</g>
<g>
</g>
<g>
</g>
<g>
</g>
<g>
</g>
<g>
</g>
<g>
</g>
<g>
</g>
<g>
</g>
<g>
</g>
<g>
</g>
<g>
</g>
<g>
</g>
<g>
</g>
<g>
</g>
</svg>
