<?xml version="1.0" encoding="iso-8859-1"?>
<!-- Generator: Adobe Illustrator 16.0.0, SVG Export Plug-In . SVG Version: 6.00 Build 0)  -->
<!DOCTYPE svg PUBLIC "-//W3C//DTD SVG 1.1//EN" "http://www.w3.org/Graphics/SVG/1.1/DTD/svg11.dtd">
<svg version="1.1" id="Capa_1" xmlns="http://www.w3.org/2000/svg" xmlns:xlink="http://www.w3.org/1999/xlink" x="0px" y="0px"
	 width="31.581px" height="31.581px" viewBox="0 0 31.581 31.581" style="enable-background:new 0 0 31.581 31.581;"
	 xml:space="preserve">
<g>
	<g>
		<polygon points="1.898,13.326 1.898,16.615 4.133,16.615 4.133,31.581 5.543,31.581 5.543,16.615 26.102,16.615 26.102,31.581 
			27.514,31.581 27.514,16.615 29.683,16.615 29.683,13.326 		"/>
		<path d="M20.405,6.492l1.091,1.324l0.885-0.73l0.058,1.406l1.646-0.033l-0.021-1.786l1.473-1.213
			c0.18,0.376,0.504,0.67,0.901,0.808V6.82h-0.312l-0.613,2.464h-3.957v0.547h3.824l-0.35,1.403h-3.477v1.607h3.078h2.349h1.262
			V6.82h-0.372V6.048c0.385-0.284,0.637-0.741,0.637-1.256s-0.25-0.971-0.637-1.255l1.303-1.072l-0.385-0.468l0.4-0.331
			l-1.244-1.511l-0.4,0.33L27.144,0l-5.104,4.2l-1.924-0.159v1.66l1.124,0.18L20.405,6.492z M26.944,5.497
			c-0.39,0-0.705-0.317-0.705-0.705c0-0.389,0.315-0.705,0.705-0.705s0.707,0.316,0.707,0.705
			C27.651,5.18,27.334,5.497,26.944,5.497z M20.688,5.214V4.662l1.538,0.127l4.839-3.985l0.398,0.485l0.401-0.33l0.519,0.629
			l-0.4,0.33l0.385,0.469l-1.074,0.884c-0.111-0.026-0.229-0.041-0.349-0.041c-0.86,0-1.563,0.702-1.563,1.562
			c0,0.017,0.002,0.033,0.002,0.05l-1.896,1.564l0.02,1.493l-0.521,0.01l-0.077-1.996l-1.335,1.098L21.23,6.596l1.452-1.063
			L20.688,5.214z"/>
		<path d="M2.679,12.842h5.777h0.002c0.271,0,0.499-0.134,0.641-0.378c0.188-0.321,0.185-0.781-0.005-1.117l-0.05-0.088
			c-0.186-0.33-0.619-1.103-1.067-1.762C7.825,9.276,7.675,9.07,7.539,8.883c-0.22-0.299-0.493-0.671-0.495-0.78
			c0.017-0.486,0.005-1.631,0.001-1.984H7.33V5.616H3.712v0.503h0.379C4.087,6.472,4.077,7.617,4.093,8.102
			C4.089,8.212,3.818,8.584,3.6,8.883C3.461,9.07,3.312,9.276,3.161,9.497c-0.447,0.659-0.881,1.432-1.068,1.762l-0.048,0.088
			c-0.19,0.336-0.192,0.796-0.006,1.117C2.179,12.708,2.407,12.842,2.679,12.842z M2.405,11.551l0.049-0.089
			c0.184-0.325,0.612-1.086,1.052-1.731C3.651,9.514,3.8,9.312,3.936,9.128C4.318,8.607,4.518,8.323,4.51,8.087
			c-0.016-0.43-0.008-1.433-0.003-1.866H6.63c0.004,0.433,0.012,1.436-0.002,1.866C6.62,8.323,6.818,8.606,7.202,9.128
			c0.135,0.184,0.284,0.386,0.43,0.603c0.438,0.645,0.868,1.406,1.051,1.731l0.049,0.089c0.118,0.208,0.121,0.51,0.009,0.704
			c-0.066,0.113-0.161,0.17-0.283,0.17H2.679c-0.122,0-0.216-0.057-0.283-0.17C2.285,12.062,2.288,11.759,2.405,11.551z"/>
		<path d="M3.017,12.322h0.362h1.344h1.692h1.351h0.355c0.158,0,0.292-0.078,0.375-0.222c0.11-0.189,0.109-0.459-0.003-0.657
			l-0.029-0.051c-0.109-0.194-0.363-0.648-0.628-1.036c-0.067-0.099-0.133-0.191-0.198-0.279H3.5
			c-0.064,0.087-0.13,0.18-0.198,0.279c-0.264,0.388-0.519,0.842-0.628,1.036l-0.028,0.051c-0.113,0.198-0.114,0.468-0.004,0.657
			C2.724,12.244,2.857,12.322,3.017,12.322z"/>
		<polygon points="20.564,12.583 20.559,12.583 20.559,10.684 20.564,10.684 20.564,10.452 10.211,10.452 10.211,10.684 
			10.923,10.684 10.923,10.849 19.957,10.849 19.957,11 10.923,11 10.923,11.184 19.957,11.184 19.957,11.337 10.923,11.337 
			10.923,11.53 19.936,11.53 19.936,11.613 19.949,11.613 19.949,11.683 10.923,11.683 10.923,11.876 19.945,11.876 19.945,11.939 
			19.949,11.939 19.949,12.01 19.945,12.01 19.945,12.028 10.923,12.028 10.923,12.211 19.945,12.211 19.945,12.288 19.949,12.288 
			19.949,12.357 19.945,12.357 19.945,12.364 10.923,12.364 10.923,12.583 10.211,12.583 10.211,12.815 20.564,12.815 		"/>
		<polygon points="18.828,10.019 18.236,10.019 18.236,9.837 10.728,9.837 10.728,9.831 10.726,9.831 10.726,9.773 10.728,9.773 
			10.728,9.709 18.236,9.709 18.236,9.557 10.728,9.557 10.728,9.542 10.726,9.542 10.726,9.483 10.728,9.483 10.728,9.43 
			18.236,9.43 18.236,9.271 10.726,9.271 10.726,9.212 10.735,9.212 10.735,9.143 18.236,9.143 18.236,8.982 10.718,8.982 
			10.718,8.855 18.236,8.855 18.236,8.702 10.718,8.702 10.718,8.576 18.236,8.576 18.236,8.438 18.828,8.438 18.828,8.246 
			10.211,8.246 10.211,8.438 10.216,8.438 10.216,10.019 10.211,10.019 10.211,10.212 18.828,10.212 		"/>
	</g>
</g>
<g>
</g>
<g>
</g>
<g>
</g>
<g>
</g>
<g>
</g>
<g>
</g>
<g>
</g>
<g>
</g>
<g>
</g>
<g>
</g>
<g>
</g>
<g>
</g>
<g>
</g>
<g>
</g>
<g>
</g>
</svg>
