<?xml version="1.0" encoding="iso-8859-1"?>
<!-- Generator: Adobe Illustrator 17.1.0, SVG Export Plug-In . SVG Version: 6.00 Build 0)  -->
<!DOCTYPE svg PUBLIC "-//W3C//DTD SVG 1.1//EN" "http://www.w3.org/Graphics/SVG/1.1/DTD/svg11.dtd">
<svg version="1.1" id="Capa_1" xmlns="http://www.w3.org/2000/svg" xmlns:xlink="http://www.w3.org/1999/xlink" x="0px" y="0px"
	 viewBox="0 0 465.001 465.001" style="enable-background:new 0 0 465.001 465.001;" xml:space="preserve">
<g>
	<path d="M462.118,149.741L301.761,24.418c-1.319-1.031-2.944-1.591-4.618-1.591H167.858c-1.766,0-3.388,0.609-4.669,1.631
		L2.882,149.741c-3.264,2.551-3.842,7.264-1.291,10.527c1.479,1.893,3.685,2.882,5.915,2.882c1.615,0,3.242-0.52,4.613-1.591
		l22.115-17.284v163.156c0,4.143,3.358,7.5,7.5,7.5s7.5-3.357,7.5-7.5V132.553l118.624-92.708l118.624,92.708v294.62H49.234v-14.745
		c0-4.143-3.358-7.5-7.5-7.5s-7.5,3.357-7.5,7.5v22.245c0,4.143,3.358,7.5,7.5,7.5h252.248h129.285c4.142,0,7.5-3.357,7.5-7.5
		V185.651c0-4.143-3.358-7.5-7.5-7.5s-7.5,3.357-7.5,7.5v241.522H301.482V144.276l22.115,17.284
		c1.319,1.031,2.944,1.591,4.618,1.591H457.5c3.201,0,6.049-2.031,7.091-5.058C465.633,155.067,464.64,151.712,462.118,149.741z
		 M330.798,148.151L189.634,37.827H294.56l141.164,110.323H330.798z"/>
	<path d="M197.858,359.927c0-16.542-13.458-30-30-30H30c-16.542,0-30,13.458-30,30s13.458,30,30,30h137.857
		C184.4,389.927,197.858,376.469,197.858,359.927z M182.858,359.927c0,8.271-6.729,15-15,15H55.964
		c2.561-4.416,4.036-9.538,4.036-15s-1.475-10.584-4.036-15h111.893C176.129,344.927,182.858,351.656,182.858,359.927z M15,359.927
		c0-8.271,6.729-15,15-15s15,6.729,15,15s-6.729,15-15,15S15,368.199,15,359.927z"/>
	<path d="M186.357,301.512c0.172-0.048,0.345-0.086,0.513-0.146C217.451,293,240,264.983,240,231.784
		c0-33.205-22.557-61.225-53.146-69.586c-0.278-0.099-0.562-0.177-0.851-0.242c-5.8-1.508-11.88-2.314-18.145-2.314
		c-39.779,0-72.143,32.363-72.143,72.143s32.363,72.143,72.143,72.143C174.252,303.927,180.45,303.081,186.357,301.512z
		 M225,231.784c0,25.783-17.168,47.622-40.67,54.712c-24.013-7.232-40.616-29.441-40.616-54.712c0-25.27,16.603-47.48,40.617-54.711
		C207.833,184.163,225,206.002,225,231.784z M110.715,231.784c0-27.071,18.928-49.788,44.24-55.655
		c-16.208,13.394-26.24,33.598-26.24,55.655c0,22.058,10.031,42.262,26.239,55.655C129.643,281.573,110.715,258.855,110.715,231.784
		z"/>
</g>
<g>
</g>
<g>
</g>
<g>
</g>
<g>
</g>
<g>
</g>
<g>
</g>
<g>
</g>
<g>
</g>
<g>
</g>
<g>
</g>
<g>
</g>
<g>
</g>
<g>
</g>
<g>
</g>
<g>
</g>
</svg>
