<?xml version="1.0" encoding="iso-8859-1"?>
<!-- Generator: Adobe Illustrator 18.0.0, SVG Export Plug-In . SVG Version: 6.00 Build 0)  -->
<!DOCTYPE svg PUBLIC "-//W3C//DTD SVG 1.1//EN" "http://www.w3.org/Graphics/SVG/1.1/DTD/svg11.dtd">
<svg version="1.1" id="Capa_1" xmlns="http://www.w3.org/2000/svg" xmlns:xlink="http://www.w3.org/1999/xlink" x="0px" y="0px"
	 viewBox="0 0 409.492 409.492" style="enable-background:new 0 0 409.492 409.492;" xml:space="preserve">
<g>
	<path d="M394.167,282.736l-72.947-63.064c-0.1-0.086-0.202-0.167-0.31-0.242c-4.205-2.969-8.987-11.069-14.524-20.449
		c-6.303-10.677-13.447-22.779-23.038-33.439c-18.665-20.746-44.332-32.396-72.272-32.806c-11.845-0.167-23.523,1.802-34.505,5.673
		l-48.166-94.293c2.125-2.207,3.44-5.2,3.44-8.498c0-6.766-5.504-12.27-12.27-12.27s-12.27,5.504-12.27,12.27
		s5.504,12.27,12.27,12.27c0.58,0,1.146-0.055,1.705-0.133l47.824,93.624c-0.056,0.025-0.113,0.048-0.169,0.073l-78.246-95.14
		c1.172-1.88,1.861-4.091,1.861-6.465c0-6.766-5.504-12.27-12.27-12.27s-12.27,5.504-12.27,12.27s5.504,12.27,12.27,12.27
		c1.478,0,2.889-0.276,4.202-0.757l77.105,93.753c-0.77,0.424-1.534,0.858-2.292,1.302l-104.55-70.07
		c0.242-0.961,0.385-1.961,0.385-2.996c0-6.766-5.504-12.27-12.27-12.27s-12.27,5.504-12.27,12.27s5.504,12.27,12.27,12.27
		c2.826,0,5.424-0.97,7.501-2.581l101.615,68.103c-1.674,1.187-3.317,2.421-4.918,3.713L32.193,113.313
		c0.005-0.148,0.022-0.293,0.022-0.442c0-6.766-5.504-12.27-12.27-12.27s-12.27,5.504-12.27,12.27s5.504,12.27,12.27,12.27
		c3.754,0,7.115-1.698,9.367-4.362l110.934,40.119c-0.433,0.421-0.864,0.844-1.289,1.273l-114.835-8.489
		c-1.385-5.257-6.166-9.15-11.852-9.15c-6.766,0-12.27,5.504-12.27,12.27s5.504,12.27,12.27,12.27c5.04,0,9.376-3.057,11.262-7.411
		l108.242,8.002l-1.362,1.427L29.86,189.069c-2.112-3.713-6.097-6.227-10.665-6.227c-6.766,0-12.27,5.504-12.27,12.27
		s5.504,12.27,12.27,12.27c6.144,0,11.233-4.544,12.119-10.446l89.749-16.049l-88.353,92.59c-1.525,1.598-1.466,4.13,0.133,5.655
		c1.597,1.523,4.129,1.466,5.655-0.133l104.909-109.939c17.533-18.374,42.133-28.678,67.552-28.326
		c25.688,0.377,49.284,11.087,66.442,30.158c9.056,10.066,15.984,21.802,22.097,32.156c4.442,7.525,8.221,13.916,12.048,18.412
		c-1.649,1.667-3.855,2.616-6.304,2.652c-3.175,0.021-6.026-1.463-7.746-4.101c-5.614-8.835-35.518-53.168-72.933-58.266
		c-16.037-2.186-31.222,3.071-45.138,15.622c-19.719,17.786-25.722,39.827-16.468,60.471c13.417,29.932,54.317,48.251,97.245,43.554
		c25.245-2.76,54.971-0.402,79.513,6.31c13.627,3.726,30.223,9.989,43.782,20.299c-19.304-9.075-50.147-19.044-91.46-18.109
		c-27.703,0.624-60.163,8.434-86.831,20.893c-13.208,6.171-21.914,15.271-25.874,27.05c-7.4,22.008,4.602,45.199,5.117,46.175
		c0.716,1.36,2.105,2.136,3.542,2.136c0.629,0,1.268-0.149,1.862-0.462c1.954-1.03,2.703-3.449,1.674-5.403
		c-0.11-0.209-10.932-21.1-4.611-39.896c3.235-9.623,10.529-17.143,21.678-22.352c25.713-12.013,56.975-19.543,83.624-20.143
		c1.701-0.038,3.374-0.057,5.038-0.057c66.686,0,104.337,30.027,104.714,30.335c1.075,0.88,2.528,1.141,3.837,0.688
		c1.312-0.452,2.296-1.551,2.601-2.904C411.997,309.993,406.541,293.434,394.167,282.736z M115.305,35.618
		c0-2.354,1.916-4.27,4.27-4.27c2.354,0,4.27,1.916,4.27,4.27s-1.916,4.27-4.27,4.27C117.22,39.887,115.305,37.972,115.305,35.618z
		 M76.011,39.847c0-2.354,1.916-4.27,4.27-4.27c2.354,0,4.27,1.916,4.27,4.27c0,2.354-1.916,4.27-4.27,4.27
		C77.926,44.116,76.011,42.201,76.011,39.847z M42.86,77.619c-2.354,0-4.27-1.916-4.27-4.27c0-2.354,1.916-4.27,4.27-4.27
		c2.354,0,4.27,1.916,4.27,4.27C47.13,75.703,45.215,77.619,42.86,77.619z M19.946,117.141c-2.354,0-4.27-1.916-4.27-4.27
		c0-2.354,1.916-4.27,4.27-4.27c2.354,0,4.27,1.916,4.27,4.27C24.215,115.225,22.3,117.141,19.946,117.141z M19.194,199.382
		c-2.354,0-4.27-1.916-4.27-4.27c0-2.354,1.916-4.27,4.27-4.27c2.354,0,4.27,1.916,4.27,4.27
		C23.464,197.467,21.548,199.382,19.194,199.382z M12.27,161.072c-2.354,0-4.27-1.916-4.27-4.27c0-2.354,1.916-4.27,4.27-4.27
		c2.354,0,4.27,1.916,4.27,4.27C16.54,159.156,14.624,161.072,12.27,161.072z M259.333,273.439
		c-44.849,4.902-78.753-15.845-89.076-38.874c-7.854-17.521-2.695-35.725,14.526-51.258c12.085-10.9,25.103-15.486,38.699-13.635
		c13.756,1.874,28.168,10.111,42.837,24.483c12.946,12.684,21.968,26.282,24.448,30.186c3.227,4.951,8.715,7.847,14.589,7.771
		c4.617-0.066,8.898-1.956,12.024-5.183l71.555,61.86c7.504,6.487,11.899,15.605,12.486,25.206
		c-12.785-15.109-33.121-26.77-59.596-34.01C315.985,272.918,285.922,270.534,259.333,273.439z"/>
	<path d="M225.497,202.569c-8.19,0-14.271,2.868-14.526,2.99c-0.969,0.464-1.711,1.299-2.058,2.316
		c-3.253,9.541-2.026,19.333,3.364,26.867c4.984,6.966,13.053,11.125,21.582,11.125c9.028,0,18.04-4.571,25.375-12.871
		c1.034-1.17,1.293-2.833,0.663-4.262C250.368,207.108,235.931,202.569,225.497,202.569z M215.963,212.178
		c1.298-0.448,3.349-1.03,5.839-1.357c-2.217,3.191-4.487,7.522-5.942,13.079C214.866,220.241,214.885,216.22,215.963,212.178z
		 M233.859,237.867c-4.269,0-8.261-1.421-11.486-3.995c0.715-12.929,6.745-20.017,9.409-22.541
		c8.112,2.026,14.714,8.131,19.689,18.251C244.68,236.372,238.224,237.867,233.859,237.867z"/>
	<path d="M329.659,248.469c-2.016-0.908-4.382-0.008-5.289,2.006c-0.907,2.015-0.009,4.383,2.006,5.289
		c10.989,4.945,23.467,16.779,23.592,16.897c0.774,0.739,1.768,1.105,2.76,1.105c1.056,0,2.109-0.415,2.895-1.239
		c1.524-1.598,1.466-4.129-0.132-5.654C354.941,266.349,341.909,253.981,329.659,248.469z"/>
</g>
<g>
</g>
<g>
</g>
<g>
</g>
<g>
</g>
<g>
</g>
<g>
</g>
<g>
</g>
<g>
</g>
<g>
</g>
<g>
</g>
<g>
</g>
<g>
</g>
<g>
</g>
<g>
</g>
<g>
</g>
</svg>
