<?xml version="1.0" encoding="iso-8859-1"?>
<!-- Generator: Adobe Illustrator 19.0.0, SVG Export Plug-In . SVG Version: 6.00 Build 0)  -->
<svg version="1.1" id="Layer_1" xmlns="http://www.w3.org/2000/svg" xmlns:xlink="http://www.w3.org/1999/xlink" x="0px" y="0px"
	 viewBox="0 0 511.999 511.999" style="enable-background:new 0 0 511.999 511.999;" xml:space="preserve">
<g>
	<g>
		<g>
			<circle cx="311.316" cy="116.296" r="9.851"/>
			<path d="M445.798,292.107c-0.377-3.264-2.588-6.026-5.69-7.108c-3.104-1.08-6.552-0.292-8.875,2.031L398.76,319.5l-8.701-8.703
				c-0.619-3.197-1.367-6.359-2.213-9.491c1.277-1.034,2.514-2.121,3.681-3.288c8.807-8.801,19.708-26.577,26.512-43.231
				c9.516-23.29,9.665-40.481,0.434-49.706c-8.952-8.955-24.717-9.187-46.865-0.691c-12.937,4.962-27.179,12.777-37.503,20.419
				c-0.686-0.481-1.38-0.951-2.074-1.42c13.889-13.161,24.373-29.878,29.986-48.676l29.212-25.107c1.894-1.627,2.982-4,2.982-6.496
				c0-2.498-1.09-4.87-2.982-6.496l-29.214-25.103c-10.93-36.601-40.333-65.306-77.347-75.246c1.79-5.818,2.876-11.774,2.876-15.477
				C287.543,9.325,278.217,0,266.754,0c-7.008,0-13.215,3.486-16.983,8.813c-2.748-1.305-5.775-1.993-8.907-1.993
				c-0.001,0-0.001,0-0.001,0c-5.554,0-10.775,2.162-14.698,6.088c-3.928,3.926-6.09,9.147-6.09,14.7
				c0,3.564,0.901,6.986,2.578,10.022c-44.751,14.179-77.276,56.102-77.276,105.482c0,31.568,13.294,60.085,34.573,80.259
				c-0.699,0.467-1.391,0.942-2.08,1.421c-10.321-7.636-24.55-15.442-37.477-20.4c-22.148-8.496-37.916-8.263-46.861,0.688
				c-9.235,9.229-9.085,26.418,0.431,49.71c6.803,16.652,17.704,34.429,26.509,43.23c1.159,1.159,2.388,2.24,3.657,3.266
				c-0.835,3.127-1.56,6.297-2.178,9.503l-8.711,8.712l-32.471-32.474c-2.325-2.323-5.773-3.113-8.876-2.031
				c-3.103,1.082-5.314,3.844-5.69,7.109c-1.168,10.155-1.761,19.688-1.761,28.337c0,105.624,85.933,191.557,191.558,191.557
				c105.624,0,191.558-85.933,191.558-191.557C447.558,311.783,446.965,302.25,445.798,292.107z M366.497,137.952l6.004,5.161
				l-6.004,5.16c0.078-1.711,0.123-3.431,0.123-5.16C366.621,141.383,366.576,139.663,366.497,137.952z M377.741,220.387
				c15.88-6.093,25.814-5.995,28.617-3.191c0.248,0.248,5.942,6.341-4.179,31.115c-5.895,14.429-14.438,28.014-20.532,35.151
				c-7.69-17.99-19.206-34.236-33.657-47.483C355.859,230.647,366.583,224.667,377.741,220.387z M263.71,25.346
				c-0.451-2.26-0.611-3.836-0.611-4.558c0-2.017,1.64-3.657,3.656-3.657c2.018,0,3.658,1.641,3.658,3.657
				c0,2.125-1.054,7.478-2.723,12.32c-1.961-0.208-3.934-0.365-5.923-0.468C263.459,30.691,264.244,28.023,263.71,25.346z
				 M238.28,25.02c0.931-0.931,2.018-1.069,2.583-1.069c0.566,0,1.654,0.138,2.589,1.074c0.854,0.853,2.623,3.208,4.486,6.357
				c0.288,0.487,0.62,0.931,0.984,1.341c-2.177,0.138-4.336,0.336-6.478,0.598c-2.025-1.318-3.513-2.474-4.166-3.127
				c-0.932-0.931-1.071-2.02-1.071-2.586S237.346,25.955,238.28,25.02z M162.508,143.113c0-51.552,41.94-93.491,93.491-93.491
				c51.551,0,93.49,41.94,93.49,93.491s-41.94,93.49-93.49,93.49C204.449,236.603,162.508,194.662,162.508,143.113z
				 M194.039,234.709c17.688,12.004,39.02,19.025,61.961,19.025c22.938,0,44.267-7.019,61.954-19.02
				c19.327,11.777,34.87,28.883,44.879,48.859l-5.6-5.601c-1.607-1.607-3.785-2.509-6.057-2.509c-2.272,0-4.45,0.902-6.056,2.508
				l-41.532,41.53l-41.528-41.53c-1.607-1.606-3.785-2.508-6.057-2.508c-2.272,0-4.451,0.902-6.056,2.508l-41.53,41.53
				l-41.531-41.53c-3.345-3.344-8.769-3.344-12.113,0l-5.89,5.89C158.802,263.711,174.332,246.665,194.039,234.709z
				 M109.821,248.311c-10.121-24.774-4.426-30.867-4.175-31.118c2.8-2.799,12.733-2.896,28.612,3.194
				c11.112,4.262,21.798,10.212,29.657,15.529c-14.545,13.223-26.003,29.373-33.645,47.452
				C124.183,276.207,115.69,262.674,109.821,248.311z M255.999,494.869c-96.179,0-174.427-78.248-174.427-174.426
				c0-2.642,0.061-5.378,0.18-8.201l25.429,25.43c1.606,1.606,3.785,2.508,6.056,2.508c2.272,0,4.451-0.902,6.056-2.508l41.53-41.53
				l41.531,41.53c3.345,3.344,8.769,3.344,12.113,0l41.53-41.53l41.528,41.53c3.345,3.344,8.769,3.344,12.113,0l41.532-41.53
				l41.527,41.529c3.345,3.346,8.769,3.345,12.113,0.001l25.43-25.429c0.12,2.822,0.18,5.557,0.18,8.2
				C430.427,416.621,352.179,494.869,255.999,494.869z"/>
		</g>
	</g>
</g>
<g>
</g>
<g>
</g>
<g>
</g>
<g>
</g>
<g>
</g>
<g>
</g>
<g>
</g>
<g>
</g>
<g>
</g>
<g>
</g>
<g>
</g>
<g>
</g>
<g>
</g>
<g>
</g>
<g>
</g>
</svg>
