<?xml version="1.0" encoding="iso-8859-1"?>
<!-- Generator: Adobe Illustrator 19.0.0, SVG Export Plug-In . SVG Version: 6.00 Build 0)  -->
<svg version="1.1" id="Layer_1" xmlns="http://www.w3.org/2000/svg" xmlns:xlink="http://www.w3.org/1999/xlink" x="0px" y="0px"
	 viewBox="0 0 511.999 511.999" style="enable-background:new 0 0 511.999 511.999;" xml:space="preserve">
<g>
	<g>
		<path d="M368.68,101.572c-0.812-7.273-4.409-13.796-10.13-18.365c-5.719-4.568-12.873-6.638-20.14-5.825
			c-7.273,0.812-13.796,4.408-18.364,10.124c-4.568,5.717-6.638,12.871-5.826,20.148c2.166,19.344-4.499,38.609-17.492,52.603
			c-0.812-25.488-12.988-39.689-21.141-49.201c-6.121-7.142-7.766-9.062-7.766-15.639c0-6.567,1.64-8.481,7.77-15.634
			c8.434-9.839,21.18-24.706,21.18-51.909C296.771,12.504,284.272,0,268.909,0c-15.369,0-27.873,12.504-27.873,27.873
			c0,6.579-1.643,8.496-7.76,15.634c-8.438,9.843-21.19,24.716-21.19,51.909c0,27.191,12.744,42.057,21.19,51.908
			c6.117,7.138,7.76,9.056,7.76,15.645c0,6.579-1.643,8.496-7.754,15.628c-0.233,0.273-0.469,0.547-0.707,0.824
			c-26.715-6.566-47.072-29.451-50.154-57.029c-0.812-7.276-4.411-13.8-10.134-18.368c-5.721-4.565-12.872-6.63-20.135-5.811
			c-7.274,0.812-13.797,4.408-18.365,10.124c-4.568,5.717-6.638,12.871-5.826,20.147c2.776,24.819,12.972,47.824,29.485,66.529
			c14.765,16.725,33.556,28.934,54.639,35.557c0.019,27.154,12.751,42.007,21.19,51.85c6.117,7.138,7.76,9.056,7.76,15.635
			c0,6.591-1.643,8.506-7.761,15.636c-1.963,2.29-4.22,4.924-6.496,7.945c-2.401-1.651-4.695-3.462-6.863-5.419
			c-3.118-2.814-7.925-2.568-10.74,0.549c-2.814,3.118-2.568,7.925,0.55,10.74c4.746,4.285,9.989,8.002,15.582,11.05
			c1.154,0.629,2.401,0.929,3.633,0.929c2.549,0,5.03-1.284,6.464-3.591c2.973-4.783,6.397-8.781,9.415-12.302
			c6.633-7.729,11.424-13.313,11.424-25.535c0-12.204-4.791-17.793-11.433-25.545c-7.805-9.103-17.516-20.431-17.516-41.997
			c0-1.608,0.065-3.255,0.199-5.038c0.275-3.666-2.113-7.004-5.672-7.928c-20.537-5.333-38.855-16.605-52.973-32.598
			c-14.432-16.35-23.345-36.458-25.772-58.152c-0.361-3.236,0.559-6.42,2.591-8.964c2.033-2.544,4.935-4.144,8.18-4.506
			c3.222-0.362,6.408,0.554,8.952,2.583c2.546,2.032,4.147,4.933,4.508,8.172c3.987,35.667,31.469,64.947,66.831,71.205
			c2.701,0.477,5.446-0.534,7.191-2.649c1.2-1.455,2.369-2.828,3.498-4.14c6.629-7.736,11.418-13.324,11.418-25.528
			c0-12.214-4.79-17.804-11.433-25.556c-7.804-9.103-17.517-20.432-17.517-41.996c0-21.566,9.719-32.902,17.531-42.013
			c6.63-7.736,11.419-13.326,11.419-25.529c0-6.983,5.682-12.665,12.665-12.665c6.977,0,12.654,5.682,12.654,12.665
			c0,21.577-9.713,32.907-17.545,42.043c-6.622,7.727-11.406,13.308-11.406,25.5c0,12.202,4.794,17.794,11.432,25.542
			c7.805,9.103,17.518,20.434,17.518,42.011c0,4.595-0.444,8.967-1.321,12.993c-0.652,2.995,0.557,6.087,3.067,7.846
			c2.51,1.758,5.831,1.838,8.422,0.202c26.293-16.601,41.053-47.237,37.603-78.047c-0.746-6.68,4.083-12.723,10.764-13.469
			c3.228-0.364,6.415,0.559,8.96,2.592c2.546,2.034,4.147,4.935,4.508,8.173c3.542,31.678-7.26,62.969-29.636,85.851
			c-2.936,3.002-2.882,7.816,0.12,10.753c3.002,2.936,7.816,2.882,10.753-0.121C360.383,173.586,372.732,137.803,368.68,101.572z"/>
	</g>
</g>
<g>
	<g>
		<path d="M360.921,253.18c-7.248-1.046-14.464,0.797-20.322,5.183c-5.857,4.385-9.658,10.789-10.701,18.036
			c-3.317,23.055-18.557,42.305-39.221,51.337c3.56-7.879,6.094-17.557,6.094-29.681c0-27.204-12.745-42.071-21.183-51.912
			c-4.686-5.461-6.749-7.866-7.459-11.643c17.712-2.942,34.655-9.818,49.345-20.07c3.443-2.404,4.288-7.144,1.883-10.588
			c-2.404-3.443-7.144-4.287-10.587-1.884c-14.36,10.023-31.192,16.355-48.584,18.3l-0.635,0.064
			c-3.663,0.373-6.531,3.316-6.811,6.989c-0.085,1.121-0.127,2.169-0.127,3.202c0,12.21,4.797,17.799,11.432,25.532
			c7.805,9.103,17.517,20.432,17.517,42.01c0,18.092-6.895,29.058-13.641,37.398c-1.956,2.418-2.242,5.784-0.722,8.498
			c1.521,2.713,4.542,4.228,7.624,3.823c36.108-4.738,64.945-33.198,70.126-69.208c0.464-3.226,2.156-6.077,4.762-8.028
			c2.606-1.951,5.817-2.768,9.041-2.306c6.651,0.958,11.281,7.151,10.323,13.805c-3.624,25.202-16.244,48.266-35.538,64.943
			c-19.105,16.515-43.425,25.704-68.477,25.875c-2.865,0.02-5.477,1.649-6.754,4.214c-1.277,2.565-1.005,5.631,0.706,7.929
			c1.484,1.994,3.165,3.964,5.034,6.13c7.805,9.104,17.517,20.432,17.517,42.011c0,5.12-0.558,9.991-1.657,14.478
			c-0.999,4.079,1.497,8.195,5.576,9.195c0.608,0.149,1.217,0.22,1.816,0.22c3.421,0,6.529-2.326,7.38-5.796
			c1.389-5.67,2.093-11.759,2.093-18.096c0-22.368-8.617-36.396-16.377-46.154c23.168-3.132,45.146-12.991,63.09-28.5
			c22.066-19.074,36.5-45.454,40.646-74.283C386.282,269.251,375.871,255.335,360.921,253.18z"/>
	</g>
</g>
<g>
	<g>
		<path d="M488.173,496.792h-84.671c0.483-0.787,1.041-1.586,1.67-2.483c2.721-3.88,6.448-9.193,6.448-18.82
			s-3.727-14.94-6.448-18.82c-2.301-3.281-3.69-5.261-3.69-10.087c0-4.827,1.389-6.807,3.69-10.089
			c2.721-3.88,6.448-9.193,6.448-18.821s-3.727-14.942-6.448-18.821c-2.301-3.281-3.69-5.262-3.69-10.089
			c0-4.199-3.405-7.604-7.604-7.604s-7.604,3.405-7.604,7.604c0,9.629,3.727,14.941,6.448,18.821
			c2.301,3.282,3.69,5.262,3.69,10.089s-1.389,6.807-3.69,10.089c-2.721,3.88-6.448,9.193-6.448,18.821
			c0,9.628,3.727,14.941,6.448,18.82c2.301,3.281,3.69,5.261,3.69,10.086c0,4.826-1.389,6.806-3.69,10.087
			c-1.901,2.71-4.289,6.126-5.558,11.216H268.12c0.695-3.824,2.75-6.234,7.471-11.744c2.742-3.2,5.851-6.825,8.873-11.24
			c2.372-3.465,1.486-8.197-1.979-10.57c-3.465-2.373-8.198-1.486-10.57,1.979c-2.556,3.734-5.38,7.027-7.878,9.94
			c-5.88,6.863-10.307,12.047-11.238,21.635h-25.398c1.089-19.062,10.088-29.559,17.419-38.111
			c6.631-7.737,11.421-13.327,11.421-25.541c0-12.204-4.79-17.793-11.422-25.533c-7.08-8.257-15.891-18.532-17.321-36.759
			c-0.222-2.828-1.999-5.296-4.61-6.405c-44.192-18.758-70.287-65.049-63.458-112.569c0.464-3.224,2.156-6.075,4.765-8.027
			c2.608-1.951,5.815-2.768,9.039-2.306c6.655,0.958,11.291,7.151,10.333,13.804c-2.798,19.446,1.54,39.255,12.216,55.777
			c2.28,3.527,6.988,4.539,10.514,2.26c3.527-2.279,4.539-6.987,2.26-10.514c-8.683-13.438-12.212-29.546-9.937-45.356
			c2.153-14.953-8.263-28.87-23.217-31.023c-7.241-1.042-14.458,0.797-20.319,5.182c-5.861,4.386-9.663,10.792-10.706,18.039
			c-7.596,52.856,20.42,104.377,68.457,126.897c2.858,20.397,13.34,32.621,20.438,40.898c6.117,7.138,7.76,9.056,7.76,15.635
			c0,6.589-1.644,8.507-7.772,15.658c-8.021,9.355-19.932,23.268-21.08,47.994h-27.346c-1.377-7.066-4.54-11.587-7.212-15.399
			c-2.993-4.267-5.155-7.352-5.155-14.268c0-6.917,2.163-10.001,5.155-14.269c3.525-5.027,7.913-11.282,7.913-23
			c0-11.723-4.388-17.982-7.914-23.011c-2.993-4.268-5.154-7.353-5.154-14.269c0-4.199-3.405-7.604-7.604-7.604
			c-4.199,0-7.604,3.405-7.604,7.604c0,11.716,4.386,17.973,7.911,22.999c2.995,4.27,5.157,7.357,5.157,14.28
			c0,6.917-2.163,10.001-5.155,14.269c-3.525,5.027-7.913,11.282-7.913,23.001c0,11.718,4.388,17.974,7.913,23.001
			c1.615,2.302,2.984,4.264,3.905,6.665h-45.571c0.923-2.401,2.291-4.363,3.906-6.665c3.526-5.027,7.915-11.283,7.915-23.002
			c0-11.719-4.389-17.975-7.915-23.003c-2.994-4.267-5.156-7.352-5.156-14.268c0-6.918,2.164-10.003,5.157-14.271
			c3.526-5.028,7.914-11.284,7.914-23.004c0-11.719-4.388-17.976-7.914-23.003c-2.994-4.268-5.157-7.354-5.157-14.271
			c0-4.199-3.405-7.604-7.604-7.604s-7.604,3.405-7.604,7.604c0,11.72,4.389,17.977,7.914,23.003
			c2.994,4.268,5.158,7.353,5.158,14.271s-2.164,10.003-5.158,14.271c-3.526,5.028-7.914,11.284-7.914,23.003
			c0,11.718,4.389,17.975,7.915,23.002c2.994,4.267,5.156,7.352,5.156,14.268c0,6.917-2.164,10.001-5.156,14.268
			c-2.673,3.81-5.837,8.333-7.214,15.398H23.826c-4.199,0-7.604,3.405-7.604,7.604s3.405,7.604,7.604,7.604h464.346
			c4.199,0,7.604-3.405,7.604-7.604S492.372,496.792,488.173,496.792z"/>
	</g>
</g>
<g>
</g>
<g>
</g>
<g>
</g>
<g>
</g>
<g>
</g>
<g>
</g>
<g>
</g>
<g>
</g>
<g>
</g>
<g>
</g>
<g>
</g>
<g>
</g>
<g>
</g>
<g>
</g>
<g>
</g>
</svg>
