<?xml version="1.0" encoding="iso-8859-1"?>
<!-- Generator: Adobe Illustrator 16.0.0, SVG Export Plug-In . SVG Version: 6.00 Build 0)  -->
<!DOCTYPE svg PUBLIC "-//W3C//DTD SVG 1.1//EN" "http://www.w3.org/Graphics/SVG/1.1/DTD/svg11.dtd">
<svg version="1.1" id="Capa_1" xmlns="http://www.w3.org/2000/svg" xmlns:xlink="http://www.w3.org/1999/xlink" x="0px" y="0px"
	 width="79.527px" height="79.527px" viewBox="0 0 79.527 79.527" style="enable-background:new 0 0 79.527 79.527;"
	 xml:space="preserve">
<g>
	<path style="fill:#010002;" d="M69.837,40.221c0,0-14.581-28.562-46.603-24.971c0,0,29.992-4.678,47.876,25.417L69.837,40.221z
		 M69.837,40.221c-0.74-0.279-0.497,0.062-1.243,0.177c-0.714,0.129-1.646-0.187-2.268,0.383c-0.176,0.15-0.124,0.409-0.373,0.29
		c-0.196-0.067-0.367-0.166-0.574-0.223c-0.503-0.104-0.912-0.114-1.414-0.078c-2.631,0.233-5.146-0.326-7.746-0.119
		c-3.278,0.243-6.545,0.161-9.828,0.301c-0.436,0.016-0.85,0.057-1.264,0.057c-0.552,0-0.746,0.177-1.129-0.269
		c-0.562-0.622-1.022-1.378-1.615-1.974c-1.22-1.273-2.488-2.366-3.555-3.793c-0.518-0.668-1.022-1.336-1.543-2.014
		c-0.492-0.663-1.108-1.108-1.686-1.706c-1.282-1.31-2.662-2.949-4.474-3.459c-0.935-0.259-1.553,0.51-1.654,1.46
		c-0.054,0.543-1.968,4.867-1.846,4.839c-0.313,0.064-0.052,0.764-0.578,0.797c-1.734,0.132-2.138-3.425-4.158-2.701
		c-0.971,0.339-1.717,1.815-1.282,2.783c0.238,0.552,0.598,0.935,0,1.401c-0.489,0.378-2.558,3.044-2.307,2.972
		c-0.171,0.036-0.51,0.72-0.663,0.875c-0.303,0.285-0.595,0.445-0.997,0.554c-0.85,0.229-1.937,0.119-2.807,0.016
		c-0.836-0.088-1.626-0.279-2.465-0.191c-0.88,0.067-1.675,0.409-2.393,0.948c-0.354,0.259-0.619,0.528-0.901,0.854
		c-0.279,0.326-0.303,0.937-0.38,1.352c-0.844,3.629,2.89,2.837,4.575,3.898c0.567,0.342-1.002,2.134-1.128,2.512
		c-0.065,0.191-0.122,0.378-0.208,0.564c-0.176,0.373-0.163,0.306-0.551,0.176c-2.757-0.994-5.455-2.04-8.065-3.371
		c-0.217-0.108-0.334-0.243-0.456,0.026c-0.055,0.129-0.085,0.284-0.031,0.419c0.997,2.388,4.337,2.9,6.314,4.199
		c0.313,0.197,0.614,0.399,0.942,0.575c0.759,0.389,0.738,0.368,0.415,1.17c-0.36,0.922-0.839,1.859-1.294,2.761
		c-0.329,0.621-0.735,1.377-0.953,2.035c-0.166,0.476-0.217,1.273-0.58,1.646c-0.35,0.352-1.095,0.59-1.52,0.844
		c-0.707,0.43-1.501,0.678-2.175,1.134c-0.88,0.611-1.4,0.767-2.444,0.87c-0.303,0.041-2.084,0.725-1.37,1.361
		c0.166,0.156,1.512-0.812,1.815-0.9c-0.217,0.311,2.348-0.684,2.485-0.787c0.329-0.27,2.827-1.129,3.167-1.259
		c0.303-0.104,1.867,0.13,1.968-0.549c0.085-0.491,0.052-1.035,0.212-1.501c0.132-0.409,0.684-1.766,0.816-2.113
		c0.261-0.621,1.458-3.729,1.675-3.779c0.129-0.042,0.51,0.3,0.673,0.352c2.568,0.792,5.25,1.201,7.923,0.854
		c0.16-0.036,1.553-0.3,1.517-0.083c-0.142,0.585-0.737,2.9,0.197,3.319c-0.652,0.357-1.639,0.735-2.377,0.849
		c-0.917,0.166-1.893,0.482-2.838,0.575c-0.557,0.067-3.117,1.673-3.27,2.103c1.305-0.699,2.672-0.989,4.083-1.357
		c0.424-0.113,5.354-1.631,5.323-1.377c0.065-0.455,0.096-0.9,0.228-1.336c0.122-0.389,0.07-0.818,0.197-1.186
		c0.132-0.404,0.253-0.823,0.38-1.253c0.122-0.425,0.187-0.901,0.707-0.73c1.204,0.409,2.278,1.118,3.487,1.507
		c3.335,1.057,16.27,1.662,17.505,0.643c0.072,0.605-0.531,0.844-0.531,1.299c0,0.28,0.329,0.373,0.392,0.622
		c-0.031-0.108-5.435,1.228-5.932,1.522c-0.479,0.279-0.808,0.492-1.295,0.735c-0.608,0.3-1.16,0.673-1.442,1.341
		c1.087,0.016,1.729-0.389,2.257-0.823c0.218-0.171,0.77-0.326,0.997-0.477c1.163-0.642,4.518-1.165,4.847-1.273
		c0.187-0.062,0.353-0.13,0.531-0.218c0.303-0.145,0.359-0.213,0.577-0.021c0.121,0.108,0.51-0.223,0.521-0.301
		c0.036-0.383,0.111-0.767,0.143-1.154c0.043-0.575-0.083-2.222,0.631-2.269c6.52-0.481,14.53-2.739,14.789-2.765
		c0.575-0.078,0.605,0.259,0.87,0.735c0.171,0.315,0.311,0.72,0.367,1.066c0.088,0.456,0.177,0.911,0.306,1.356
		c0.14,0.601,0.585,0.487,0.859,0.539c2.248,0.522,4.572,0.202,6.846,0.114c-0.135,0.264,1.269,0,1.963,0.118
		c0.74,0.119,1.015,0.653,1.656,0.958c0.508,0.244,1.099,0.166,1.616,0.389c0.56,0.254,2.237,0.14,2.392,0.373
		c0.166-0.197,0.187-0.445-0.041-0.596c-0.974-0.456-1.968-0.549-2.931-0.922c-1.066-0.435-2.035-1.057-3.045-1.579
		c-0.533-0.274-0.445-1.859-0.569-2.408c-0.171-0.797-0.29-1.849-0.756-2.526c-0.301-0.42-0.414-0.601-0.155-1.057
		c0.187-0.342,0.476-0.684,0.579-1.046c0.467-1.642,0.736-3.604,0.042-5.22c-0.238-0.58-1.129-1.869-1.419-2.418 M20.604,39.688
		c-0.163,0.357-0.355,0.726-0.518,1.087c1.292-0.129,2.576-0.176,3.876-0.176c0.324,0,0.738,0.067,0.738-0.29
		c0-0.243,0.518-0.455,0.673-0.678c0.391-0.596,0.577-1.232,0.794-1.921c-0.137,0.248,0.187-0.611,0.339-0.782
		c-0.577-0.394-1.367-1.181-2.063-1.333c-0.684-0.142-2.079,1.81-2.185,1.918 M30.545,31.825c-0.603,1.23-1.028,2.55-1.574,3.795
		c-0.238,0.546,0.021,0.546,0.466,0.852c0.251,0.171,0.468,0.384,0.707,0.575c0.531,0.445,1.054,0.714,1.686,0.989
		c1.315,0.554,2.237,1.543,3.41,2.304c0.531,0.337,1.204,0.875,1.823,0.979c0.829,0.15,1.38,0.13,2.196,0
		c-0.943-2.542-1.908-5.048-3.41-7.304c-0.619-0.945-1.473-2.175-2.496-2.7c-0.578-0.279-1.023-0.764-1.696-0.811
		c-0.479-0.036-0.469,0.117-0.697,0.536C30.822,31.299,30.68,31.558,30.545,31.825 M28.844,38.797
		c-0.308-0.243-0.608-0.466-0.937-0.668c-0.303,0.803-0.552,1.59-0.986,2.341c1.574,0.166,3.192,0.259,4.735,0.605
		C30.776,40.272,29.883,39.372,28.844,38.797 M13.706,51.22c-0.064,0.057-0.116,0.176-0.176,0.243
		c1.814,0.187,3.627,0.243,5.414,0.435c0.903,0.088,1.867,0.067,2.762-0.016c0.342-0.025,1.057-0.067,1.295-0.29
		c0.373-0.315,0.557-1.874,0.531-1.988c-0.111-0.394-1.23-0.337-1.512-0.362c-0.567-0.088-1.134-0.301-1.706-0.301
		c-0.578,0-1.139-0.01-1.719-0.108c-1.075-0.15-2.354-0.803-3.42-0.254c-0.401,0.208-0.927,0.854-0.927,1.321
		C14.247,50.474,13.812,50.655,13.706,51.22 M71.463,55.792c0.166-0.053,0.544-0.021,0.523-0.223
		c-0.058-0.296-0.089-0.596-0.135-0.886c-0.062-0.42-0.155-0.845-0.238-1.264c-0.166-0.808-0.445-1.507-0.787-2.269
		c-0.259,0.357-0.549,0.969-0.901,1.182c-0.461,0.253-0.999,0.253-1.522,0.326c-0.435,0.057-0.693-0.964-0.745-1.254
		c-0.083-0.574-0.109-1.01-0.29-1.568c-0.404,0.176-0.544,0.016-0.948,0.223c-0.29,0.14-0.616,0.238-0.921,0.389
		c-0.394,0.149-0.643,0.461-1,0.652c-0.088,0.051-0.135,0.145-0.238,0.176c-0.067,0.025-0.217-0.099-0.295-0.057
		c-0.129,0.057-0.228,0.154-0.29,0.3c-0.114,0.331,0.187,0.726,0.321,1.03c0.264,0.575,0.513,1.145,0.771,1.729
		c0.104,0.254,0.218,0.726,0.435,0.891c0.27,0.213,1.16,0.534,1.647,0.56"/>
</g>
<g>
</g>
<g>
</g>
<g>
</g>
<g>
</g>
<g>
</g>
<g>
</g>
<g>
</g>
<g>
</g>
<g>
</g>
<g>
</g>
<g>
</g>
<g>
</g>
<g>
</g>
<g>
</g>
<g>
</g>
</svg>
