<?xml version="1.0" encoding="iso-8859-1"?>
<!-- Generator: Adobe Illustrator 19.0.0, SVG Export Plug-In . SVG Version: 6.00 Build 0)  -->
<svg version="1.1" id="Layer_1" xmlns="http://www.w3.org/2000/svg" xmlns:xlink="http://www.w3.org/1999/xlink" x="0px" y="0px"
	 viewBox="0 0 512 512" style="enable-background:new 0 0 512 512;" xml:space="preserve">
<g>
	<g>
		<polygon points="229.11,491.232 250.441,512 266.194,491.232 		"/>
	</g>
</g>
<g>
	<g>
		<path d="M348.769,14.07C342.617,5.734,331.546,1.001,315.862,0H155.746c2.665,8.378,3.573,18.626,0.054,29.44h161.375
			c13.056,0,25.704,1.781,37.72,5.096C354.806,28.343,353.532,20.527,348.769,14.07z"/>
	</g>
</g>
<g>
	<g>
		<path d="M317.175,49.133H62.726l30.706,29.985c3.824,3.735,3.971,9.84,0.33,13.753L61.16,127.91h255.031
			c24.522,0,44.471,19.95,44.471,44.471v1.694c0,24.522-19.95,44.473-44.472,44.473H204.878c-67.961,0-123.25,55.29-123.25,123.25
			v6.488c0,67.961,55.29,123.25,123.25,123.25h119.167c-12.259-24.847-10.711-46.996-6.601-62.225
			c1.702-6.308,3.951-11.875,6.241-16.552H204.879c-24.522,0-44.473-19.951-44.473-44.473v-6.488
			c0-24.522,19.951-44.472,44.473-44.472h111.312c67.961,0,123.25-55.29,123.25-123.25v-2.68
			C439.441,103.98,384.593,49.133,317.175,49.133z"/>
	</g>
</g>
<g>
	<g>
		<path d="M400.543,392.76h-54.23c-6.935,10.119-23.721,41.252,0.326,78.778h53.905c14.362,0,36.825-22.336,50.296-39.389
			C437.37,415.097,414.905,392.76,400.543,392.76z M394.318,432.231c-5.438,0-9.847-4.409-9.847-9.847s4.409-9.847,9.847-9.847
			s9.847,4.409,9.847,9.847S399.756,432.231,394.318,432.231z"/>
	</g>
</g>
<g>
</g>
<g>
</g>
<g>
</g>
<g>
</g>
<g>
</g>
<g>
</g>
<g>
</g>
<g>
</g>
<g>
</g>
<g>
</g>
<g>
</g>
<g>
</g>
<g>
</g>
<g>
</g>
<g>
</g>
</svg>
