<?xml version="1.0" encoding="iso-8859-1"?>
<!-- Generator: Adobe Illustrator 19.0.0, SVG Export Plug-In . SVG Version: 6.00 Build 0)  -->
<svg version="1.1" id="Capa_1" xmlns="http://www.w3.org/2000/svg" xmlns:xlink="http://www.w3.org/1999/xlink" x="0px" y="0px"
	 viewBox="0 0 463.002 463.002" style="enable-background:new 0 0 463.002 463.002;" xml:space="preserve">
<path d="M370.227,172.831l-27.659-41.489c-0.724-1.086-1.719-1.964-2.886-2.548l-39.108-19.554
	c-7.525-3.763-16.066-4.37-24.048-1.709l-6.351,2.117v-4.257c0-1.589-0.164-3.148-0.466-4.662l3.692-3.692
	c5.031-5.029,12.683-6.272,19.046-3.091l10.861,5.431c6.464,3.233,14.211,1.612,18.839-3.941l27.385-32.862
	c7.034-8.441,9.159-19.704,5.685-30.126l-3.772-11.317c-1.31-3.93-5.557-6.052-9.487-4.744c-3.93,1.31-6.053,5.558-4.744,9.487
	l3.772,11.317c1.82,5.459,0.707,11.358-2.978,15.78l-27.384,32.861c-0.149,0.18-0.399,0.232-0.608,0.128l-10.861-5.431
	c-12.145-6.071-26.758-3.701-36.361,5.901l-0.985,0.985c-1.398-1.171-2.94-2.201-4.624-3.044l-9.556-4.778l7.009-10.512
	c5.516-8.275,5.213-19.18-0.753-27.135l-0.027-0.036l15.527-31.054c1.853-3.705,0.351-8.21-3.354-10.062
	c-3.702-1.853-8.209-0.351-10.062,3.354l-12.173,24.346l-7.119-9.492c-1.417-1.889-3.639-3-6-3s-4.583,1.111-6,3l-7.119,9.492
	L205.382,4.148c-1.853-3.705-6.356-5.208-10.062-3.354c-3.705,1.852-5.207,6.357-3.354,10.062l15.527,31.054l-0.027,0.036
	c-5.967,7.955-6.27,18.86-0.753,27.135l7.008,10.512l-9.557,4.778c-1.323,0.661-2.554,1.443-3.703,2.311l-0.253-0.253
	c-9.603-9.602-24.217-11.972-36.361-5.9l-10.861,5.431c-0.208,0.104-0.457,0.052-0.607-0.127l-27.385-32.862
	c-3.685-4.421-4.798-10.321-2.978-15.781l3.772-11.317c1.31-3.929-0.814-8.177-4.744-9.487c-3.929-1.31-8.177,0.813-9.487,4.744
	l-3.772,11.317c-3.474,10.424-1.349,21.686,5.685,30.126l27.385,32.862c4.626,5.552,12.374,7.174,18.839,3.941l10.861-5.43
	c6.363-3.181,14.017-1.938,19.046,3.09l2.351,2.352c-0.504,1.929-0.78,3.94-0.78,6.003v3.706l-4.697-1.566
	c-7.982-2.66-16.523-2.054-24.048,1.709l-39.108,19.554c-1.167,0.583-2.163,1.462-2.886,2.548l-27.66,41.489
	c-4.052,6.078-5.05,13.538-2.741,20.467l5.525,16.576c1.048,3.143,3.974,5.131,7.114,5.13c0.786,0,1.586-0.125,2.373-0.387
	c3.93-1.31,6.053-5.557,4.744-9.487l-5.525-16.577c-0.835-2.506-0.474-5.204,0.991-7.403l26.555-39.832l37.327-18.664
	c3.943-1.97,8.416-2.288,12.597-0.895l9.44,3.147v13.188l-18.872,6.291c-1.504,0.501-2.81,1.466-3.731,2.756l-40,56
	c-0.498,0.697-0.873,1.475-1.108,2.299l-12.352,43.232c-3.104,10.866,1.979,22.421,12.086,27.475l4.123,2.062
	c1.077,0.539,2.221,0.793,3.348,0.793c2.751,0,5.4-1.52,6.714-4.147c1.853-3.705,0.351-8.21-3.354-10.062l-4.123-2.062
	c-3.656-1.828-5.495-6.008-4.372-9.938l11.996-41.987l37.83-52.962l11.933-3.978c0.336,3.351,1.385,6.492,2.983,9.281
	c-1.892,1.441-3.463,3.325-4.553,5.572c-4.542,9.365-16.231,34.006-26.66,60.5c-13.198,33.529-19.89,58.521-19.89,74.281
	c0,48.954,47.467,124.956,56,138.221v13.779c0,4.142,3.358,7.5,7.5,7.5s7.5-3.358,7.5-7.5v-12.894l16.5-16.5l16.5,16.5v12.894
	c0,4.142,3.358,7.5,7.5,7.5c4.142,0,7.5-3.358,7.5-7.5v-13.779c8.533-13.266,56-89.267,56-138.221
	c0-15.76-6.692-40.752-19.89-74.281c-10.429-26.494-22.118-51.135-26.66-60.5c-1.09-2.247-2.661-4.131-4.553-5.572
	c1.683-2.936,2.749-6.267,3.024-9.818l13.546,4.515l37.83,52.962l11.996,41.987c1.123,3.93-0.716,8.11-4.372,9.938l-4.123,2.062
	c-3.705,1.852-5.207,6.357-3.354,10.062c1.314,2.628,3.962,4.148,6.714,4.147c1.127,0,2.271-0.255,3.348-0.793l4.123-2.062
	c10.108-5.054,15.191-16.609,12.086-27.475l-12.352-43.232c-0.235-0.824-0.61-1.602-1.108-2.299l-40-56
	c-0.921-1.29-2.228-2.254-3.731-2.756l-20.525-6.842v-12.086l11.094-3.698c4.181-1.394,8.655-1.076,12.597,0.895l37.327,18.664
	l26.555,39.832c1.466,2.198,1.827,4.896,0.991,7.403l-5.525,16.576c-1.31,3.93,0.814,8.177,4.744,9.487
	c0.787,0.262,1.586,0.387,2.373,0.387c3.14,0,6.066-1.988,7.114-5.13l5.525-16.576C375.278,186.368,374.279,178.908,370.227,172.831
	z M230.674,36.002l11.208,14.944c2.158,2.877,2.268,6.822,0.272,9.815l-7.494,11.241h-7.973l-7.494-11.241
	c-1.996-2.993-1.886-6.938,0.272-9.815L230.674,36.002z M210.873,97.788l19.801-9.9l19.801,9.9c2.898,1.449,4.699,4.363,4.699,7.603
	v46.111c0,4.687-3.813,8.5-8.5,8.5h-32c-4.687,0-8.5-3.813-8.5-8.5v-46.111C206.174,102.15,207.975,99.237,210.873,97.788z
	 M257.686,175.002c0.117,0,0.331,0.034,0.442,0.265c2.717,5.603,5.458,11.399,8.174,17.302c-23.659,3.433-47.597,3.433-71.256,0
	c2.716-5.903,5.456-11.699,8.174-17.302c0.112-0.231,0.325-0.265,0.442-0.265H257.686z M280.382,224.854
	c-33.012,4.733-66.403,4.733-99.415,0c2.476-6.027,5.061-12.095,7.712-18.125c0.268,0.074,0.542,0.136,0.823,0.181
	c13.66,2.164,27.417,3.245,41.173,3.245s27.513-1.082,41.173-3.245c0.281-0.044,0.555-0.107,0.823-0.181
	C275.32,212.758,277.906,218.827,280.382,224.854z M297.521,272.685c-44.38,6.627-89.314,6.627-133.694,0
	c2.951-10.263,6.893-21.658,11.446-33.512c18.387,2.82,36.894,4.243,55.401,4.243s37.015-1.423,55.401-4.243
	C290.628,251.026,294.571,262.422,297.521,272.685z M288.541,360.24c-0.965-0.249-1.994-0.311-3.04-0.146
	c-36.38,5.763-73.273,5.763-109.653,0c-1.046-0.165-2.075-0.103-3.04,0.146c-3.411-8.135-6.481-16.367-8.918-24.383
	c22.176,3.2,44.479,4.82,66.785,4.82s44.609-1.619,66.785-4.82C295.021,343.873,291.952,352.105,288.541,360.24z M253.339,427.56
	l-9.736-9.736c5.462-0.269,10.918-0.708,16.364-1.319C257.433,420.839,255.172,424.581,253.339,427.56z M208.01,427.56
	c-1.834-2.979-4.095-6.721-6.629-11.054c5.446,0.611,10.903,1.049,16.365,1.319L208.01,427.56z M269.192,400.14
	c-25.56,4.016-51.474,4.016-77.035,0c-4.047-7.459-8.298-15.695-12.371-24.298c16.9,2.378,33.894,3.574,50.889,3.574
	s33.988-1.196,50.889-3.574C277.489,384.445,273.239,392.681,269.192,400.14z M303.174,303.502c0,5.18-0.633,10.765-1.753,16.604
	c-46.945,7.427-94.549,7.427-141.494,0c-1.121-5.839-1.753-11.424-1.753-16.604c0-4.528,0.716-10.015,1.99-16.197
	c23.402,3.569,46.955,5.373,70.51,5.373s47.108-1.804,70.51-5.373C302.458,293.487,303.174,298.974,303.174,303.502z"/>
<g>
</g>
<g>
</g>
<g>
</g>
<g>
</g>
<g>
</g>
<g>
</g>
<g>
</g>
<g>
</g>
<g>
</g>
<g>
</g>
<g>
</g>
<g>
</g>
<g>
</g>
<g>
</g>
<g>
</g>
</svg>
