<?xml version="1.0" encoding="iso-8859-1"?>
<!-- Generator: Adobe Illustrator 19.0.0, SVG Export Plug-In . SVG Version: 6.00 Build 0)  -->
<svg version="1.1" id="Layer_1" xmlns="http://www.w3.org/2000/svg" xmlns:xlink="http://www.w3.org/1999/xlink" x="0px" y="0px"
	 viewBox="0 0 512.005 512.005" style="enable-background:new 0 0 512.005 512.005;" xml:space="preserve">
<g>
	<g>
		<path d="M396.493,241.848c-1.955-16.216-5.309-31.922-9.974-46.828c33.524,12.759,64.242,31.412,91.5,55.645
			c1.736,1.541,3.894,2.3,6.045,2.3c2.51,0,5.009-1.032,6.807-3.055c3.34-3.758,3.003-9.511-0.755-12.851
			c-32.849-29.201-70.439-50.774-111.767-64.214c-5.718-13.391-12.587-25.92-20.548-37.318c-4.543-6.506-9.353-12.505-14.388-18.006
			c55.318-15.122,105.749-44.401,146.666-85.319c3.555-3.555,3.555-9.319,0-12.873c-3.556-3.555-9.319-3.555-12.874,0
			c-41.316,41.318-92.887,70.078-149.385,83.374c-1.298-1.063-2.604-2.106-3.923-3.108c-1.017-15.557-7.296-30.249-17.97-41.774
			c-0.944-1.02-1.926-1.997-2.926-2.951V32.927C303.001,14.77,288.23,0,270.074,0h-7.273c-2.434,0-4.732,0.566-6.797,1.548
			C253.94,0.566,251.641,0,249.206,0h-7.272c-18.147,0-32.91,14.77-32.91,32.927v21.925c-0.999,0.952-1.978,1.925-2.922,2.942
			c-10.69,11.517-16.978,26.222-17.995,41.802c-1.318,1.001-2.622,2.043-3.918,3.105C127.69,89.404,76.119,60.643,34.801,19.326
			c-3.555-3.555-9.318-3.556-12.874,0c-3.555,3.555-3.555,9.319,0,12.873c40.917,40.918,91.349,70.198,146.668,85.32
			c-5.035,5.501-9.845,11.5-14.388,18.005c-7.961,11.398-14.828,23.926-20.547,37.317c-41.319,13.431-78.911,35.005-111.773,64.216
			c-3.758,3.34-4.095,9.095-0.755,12.851c1.799,2.023,4.297,3.055,6.807,3.055c2.15,0,4.311-0.759,6.045-2.3
			c27.27-24.241,57.99-42.895,91.508-55.65c-4.664,14.907-8.019,30.613-9.975,46.829c-42.711,34.767-75.644,80.46-95.355,132.387
			c-1.784,4.701,0.58,9.958,5.28,11.741c1.065,0.404,2.156,0.595,3.23,0.595c3.672,0,7.131-2.238,8.512-5.875
			c16.457-43.356,42.69-82.09,76.436-113.136c-0.079,2.742-0.127,5.49-0.127,8.25c0,8.307,0.363,16.292,1.081,23.957
			c-4.563,37.1-0.774,75.372,10.991,110.757c12.451,37.446,33.023,70.692,61.147,98.816c1.778,1.777,4.109,2.667,6.438,2.667
			c2.329,0,4.66-0.888,6.438-2.667c3.555-3.555,3.555-9.319,0-12.873c-36.336-36.336-59.153-82.327-66.309-131.622
			c6.032,10.809,13.434,20.305,22.196,28.449c24.364,22.645,58.186,34.127,100.532,34.127c30.866,0,57.471-6.21,79.079-18.456
			c4.374-2.478,5.91-8.035,3.43-12.408c-2.477-4.374-8.031-5.91-12.408-3.431c-18.838,10.676-42.422,16.09-70.102,16.09
			c-37.597,0-67.251-9.844-88.137-29.256c-24-22.306-36.169-57.348-36.169-104.147c0-50.575,14.182-96.389,37.023-129.393
			c9.154,6.241,19.398,11.309,30.594,15.082c0.964,0.325,1.944,0.479,2.908,0.479c3.8,0,7.344-2.398,8.625-6.197
			c1.605-4.764-0.955-9.929-5.719-11.533c-9.217-3.107-17.658-7.2-25.196-12.207c21.039-23.895,47.437-38.144,76.07-38.144
			c28.629,0,55.025,14.245,76.063,38.135c-19.709,13.122-45.234,19.778-76.058,19.778c-9.285,0-18.237-0.621-26.608-1.847
			c-4.959-0.726-9.596,2.713-10.327,7.688c-0.729,4.974,2.713,9.597,7.688,10.327c9.24,1.353,19.081,2.04,29.247,2.04
			c35.084,0,64.374-7.951,87.274-23.604c22.845,33.005,37.028,78.82,37.028,129.399c0,42.868-10.232,75.941-30.413,98.304
			c-3.367,3.732-3.072,9.489,0.66,12.857c3.73,3.367,9.486,3.072,12.857-0.659c5.827-6.457,10.935-13.626,15.32-21.49
			c-7.154,49.303-29.975,95.301-66.316,131.643c-3.555,3.555-3.555,9.319,0,12.873c1.778,1.777,4.109,2.667,6.438,2.667
			c2.329,0,4.66-0.888,6.438-2.667c28.124-28.124,48.696-61.37,61.147-98.815c11.769-35.392,15.557-73.672,10.989-110.779
			c0.719-7.662,1.088-15.637,1.088-23.935c0-2.758-0.049-5.506-0.128-8.245c33.745,31.046,59.976,69.779,76.43,113.131
			c1.381,3.638,4.839,5.875,8.512,5.875c1.074,0,2.165-0.192,3.229-0.595c4.701-1.784,7.064-7.041,5.281-11.741
			C472.134,322.308,439.203,276.616,396.493,241.848z M265.107,18.206h4.967c8.118,0,14.721,6.603,14.721,14.721v9.522
			c-6.211-2.901-12.848-4.866-19.687-5.797V18.206z M227.231,32.927c0-8.118,6.597-14.721,14.703-14.721h4.967v18.447
			c-6.831,0.93-13.463,2.894-19.67,5.791V32.927z M256.005,75.685c-16.164,0-31.879,3.721-46.67,10.852
			c2.253-6,5.657-11.559,10.112-16.358c9.414-10.142,22.737-15.96,36.556-15.96c13.834,0,27.164,5.822,36.569,15.972
			c4.445,4.799,7.842,10.352,10.094,16.341C287.879,79.405,272.165,75.685,256.005,75.685z"/>
	</g>
</g>
<g>
</g>
<g>
</g>
<g>
</g>
<g>
</g>
<g>
</g>
<g>
</g>
<g>
</g>
<g>
</g>
<g>
</g>
<g>
</g>
<g>
</g>
<g>
</g>
<g>
</g>
<g>
</g>
<g>
</g>
</svg>
