<?xml version="1.0" encoding="iso-8859-1"?>
<!-- Generator: Adobe Illustrator 19.0.0, SVG Export Plug-In . SVG Version: 6.00 Build 0)  -->
<svg version="1.1" id="Layer_1" xmlns="http://www.w3.org/2000/svg" xmlns:xlink="http://www.w3.org/1999/xlink" x="0px" y="0px"
	 viewBox="0 0 512 512" style="enable-background:new 0 0 512 512;" xml:space="preserve">
<g>
	<g>
		<path d="M446.821,405.75c21.631-26.66,54.303-66.946,36.606-142.175c-4.563-19.387-14.42-33.013-30.152-41.66
			c-45.328-24.933-122.989,0.845-131.687,3.87c-0.807,0.277-1.248,0.429-1.298,0.454c-5.219,1.929-11.017-0.744-12.946-5.962
			c-0.983-2.647-0.769-5.445,0.353-7.815c0.303-0.63,3.479-6.441,4.626-8.773c19.765-40.45,31.463-89.712,31.463-115.905
			C343.785,39.379,304.407,0,256.002,0c-48.404,0-87.783,39.379-87.783,87.783c0,27.946,13.097,81.329,35.055,122.952
			c1.979,2.647,2.622,6.202,1.399,9.53c-1.929,5.231-7.727,7.904-12.946,5.975c-0.845-0.303-84.342-30.505-132.469-4.614
			c-16.034,8.622-26.068,22.349-30.681,41.95C10.868,338.804,43.554,379.09,65.184,405.75c6,7.387,11.168,13.765,14.383,19.828
			c9.542,18.026,10.223,46.917,1.664,70.262c-1.853,5.042-4.046,9.693-6.593,13.954c10.74-4.097,21.517-10.651,28.11-21.126
			c10.525-16.727,8.622-40.929-5.66-71.951c-28.803-62.535-36.177-108.985-21.921-138.053c6.202-12.63,16.702-21.467,28.803-24.265
			c5.42-1.248,10.841,2.13,12.101,7.563c1.248,5.42-2.13,10.841-7.563,12.088c-2.912,0.681-10.248,3.34-15.227,13.5
			c-6.454,13.135-12.151,46.299,22.122,120.733c3.391,7.361,6.177,14.458,8.332,21.278l36.341,52.992
			c0.063-26.559-2.433-58.892-13.034-78.619c-11.622-21.656-18.013-47.95-17.521-72.14c0.529-25.967,8.546-46.06,22.576-56.585
			c4.462-3.34,10.777-2.433,14.118,2.017c3.34,4.462,2.445,10.777-2.017,14.118c-17.673,13.261-21.328,62.169,0.618,103.048
			c14.761,27.492,16.223,72.682,15.189,103.136c20.925-38.156,27.631-102.418,28.425-129.481c-2.937-23.975-4.74-42.959-4.74-49.022
			c0-8.017,2.811-15.857,8.13-22.652c3.429-4.387,9.769-5.168,14.156-1.727c4.387,3.429,5.156,9.769,1.727,14.156
			c-2.546,3.252-3.845,6.706-3.845,10.223c0,7.966,4.765,53.774,12.24,101.75c8.798,56.56,15.832,80.901,19.904,91.224
			c4.072-10.324,11.105-34.664,19.904-91.224c7.475-47.976,12.24-93.783,12.24-101.75c0-3.92-1.588-7.727-4.727-11.282
			c-3.681-4.185-3.265-10.563,0.908-14.231c4.185-3.681,10.563-3.277,14.244,0.908c6.378,7.248,9.744,15.757,9.744,24.605
			c0,6.076-1.815,25.147-4.752,49.198c0.807,27.164,7.525,91.237,28.412,129.305c-1.034-30.454,0.429-75.644,15.189-103.136
			c21.946-40.879,18.29-89.787,0.618-103.048c-4.462-3.34-5.357-9.656-2.017-14.118c3.34-4.45,9.668-5.357,14.118-2.017
			c14.03,10.525,22.047,30.618,22.576,56.585c0.492,24.189-5.899,50.484-17.521,72.14c-10.626,19.765-13.109,52.173-13.046,78.758
			l36.328-52.992c2.168-6.87,4.966-14.004,8.383-21.416c34.274-74.434,28.576-107.598,22.122-120.733
			c-4.979-10.16-12.303-12.82-15.227-13.5c-5.433-1.248-8.811-6.668-7.563-12.088c1.261-5.433,6.668-8.811,12.101-7.563
			c12.101,2.798,22.601,11.635,28.803,24.265c14.257,29.068,6.882,75.518-21.921,138.053c-14.294,31.059-16.185,55.287-5.622,72.014
			c6.63,10.5,17.408,17.055,28.11,21.126c-2.559-4.273-4.777-8.95-6.63-14.017c-8.559-23.345-7.878-52.236,1.664-70.262
			C435.652,419.515,440.821,413.137,446.821,405.75z M229.531,118.489c-5.572,0-10.084-4.513-10.084-10.084
			s4.513-10.084,10.084-10.084s10.084,4.513,10.084,10.084S235.103,118.489,229.531,118.489z M277.431,118.489
			c-5.572,0-10.084-4.513-10.084-10.084s4.513-10.084,10.084-10.084s10.084,4.513,10.084,10.084S283.003,118.489,277.431,118.489z"
			/>
	</g>
</g>
<g>
</g>
<g>
</g>
<g>
</g>
<g>
</g>
<g>
</g>
<g>
</g>
<g>
</g>
<g>
</g>
<g>
</g>
<g>
</g>
<g>
</g>
<g>
</g>
<g>
</g>
<g>
</g>
<g>
</g>
</svg>
