<?xml version="1.0" encoding="iso-8859-1"?>
<!-- Generator: Adobe Illustrator 19.0.0, SVG Export Plug-In . SVG Version: 6.00 Build 0)  -->
<svg version="1.1" id="Layer_1" xmlns="http://www.w3.org/2000/svg" xmlns:xlink="http://www.w3.org/1999/xlink" x="0px" y="0px"
	 viewBox="0 0 512 512" style="enable-background:new 0 0 512 512;" xml:space="preserve">
<g>
	<g>
		<circle cx="154.47" cy="178.604" r="16.868"/>
	</g>
</g>
<g>
	<g>
		<circle cx="356.892" cy="178.604" r="16.868"/>
	</g>
</g>
<g>
	<g>
		<path d="M255.683,195.477c-65.109,0-118.079,45.403-118.079,101.211c0,55.808,52.97,101.211,118.079,101.211
			c65.11,0,118.079-45.403,118.079-101.211C373.763,240.88,320.794,195.477,255.683,195.477z M255.683,364.162
			c-46.506,0-84.342-30.269-84.342-67.474s37.836-67.474,84.342-67.474s84.342,30.269,84.342,67.474S302.19,364.162,255.683,364.162
			z"/>
	</g>
</g>
<g>
	<g>
		<circle cx="221.944" cy="296.683" r="16.868"/>
	</g>
</g>
<g>
	<g>
		<circle cx="289.418" cy="296.683" r="16.868"/>
	</g>
</g>
<g>
	<g>
		<path d="M509.083,40.863c-1.193-7.089-6.746-12.643-13.836-13.837c-49.021-8.251-98.464,0.752-136.824,32.359
			c-31.2-13.681-66.023-21.348-102.74-21.348c-36.562,0-71.246,7.602-102.343,21.176c-38.413-31.529-87.797-40.4-136.614-32.187
			C9.636,28.219,4.082,33.773,2.89,40.862c-7.992,47.503,0.12,95.874,30.242,134.203c-12.375,27.013-19.23,56.717-19.23,87.886
			c0,124.017,108.463,224.913,241.782,224.913s241.782-100.896,241.782-224.913c0-30.983-6.77-60.522-19.006-87.406
			C505.054,141.996,518.292,95.604,509.083,40.863z M34.498,58.634c33.711-3.481,63.128,4.047,85.655,18.153
			C92.759,94.1,69.372,116.503,51.569,142.521C38.223,120.321,31.088,91.662,34.498,58.634z M255.683,454.127
			c-114.716,0-208.045-85.762-208.045-191.176S140.968,71.775,255.683,71.775s208.045,85.762,208.045,191.176
			S370.399,454.127,255.683,454.127z M460.116,142.996c-17.778-26.125-41.175-48.626-68.605-66.018
			c22.529-14.207,52.077-21.846,85.963-18.344C480.905,91.864,473.661,120.711,460.116,142.996z"/>
	</g>
</g>
<g>
</g>
<g>
</g>
<g>
</g>
<g>
</g>
<g>
</g>
<g>
</g>
<g>
</g>
<g>
</g>
<g>
</g>
<g>
</g>
<g>
</g>
<g>
</g>
<g>
</g>
<g>
</g>
<g>
</g>
</svg>
