<?xml version="1.0" encoding="iso-8859-1"?>
<!-- Generator: Adobe Illustrator 16.0.0, SVG Export Plug-In . SVG Version: 6.00 Build 0)  -->
<!DOCTYPE svg PUBLIC "-//W3C//DTD SVG 1.1//EN" "http://www.w3.org/Graphics/SVG/1.1/DTD/svg11.dtd">
<svg version="1.1" id="Capa_1" xmlns="http://www.w3.org/2000/svg" xmlns:xlink="http://www.w3.org/1999/xlink" x="0px" y="0px"
	 width="79.374px" height="79.374px" viewBox="0 0 79.374 79.374" style="enable-background:new 0 0 79.374 79.374;"
	 xml:space="preserve">
<g>
	<g>
		<path d="M45.373,42.206c8.474-10.087,7.987-25.201-1.499-34.691C33.847-2.507,17.54-2.503,7.517,7.515
			c-10.02,10.022-10.02,26.332,0,36.354c9.493,9.489,24.602,9.972,34.69,1.499l34.003,34.006l3.162-3.162L45.373,42.206z
			 M41.205,40.101l-1.099,1.1c-8.316,7.723-21.334,7.592-29.424-0.493c-8.271-8.278-8.271-21.751,0-30.029
			c8.281-8.28,21.751-8.28,30.033,0C48.801,18.767,48.924,31.783,41.205,40.101z"/>
		<path d="M33.672,20.529c-1.064-1.73-2.556-3.107-4.319-3.949c0.103-0.361,0.178-0.729,0.247-1.086
			c0.274-1.442,0.517-2.344,1.656-2.739c0.411-0.141,0.623-0.585,0.479-0.996c-0.133-0.409-0.582-0.626-0.989-0.482
			c-2.067,0.717-2.423,2.568-2.687,3.92c-0.055,0.308-0.113,0.575-0.178,0.818c-0.801-0.229-1.649-0.351-2.519-0.351
			c-0.458,0-0.917,0.041-1.365,0.108c-0.041-0.178-0.079-0.365-0.113-0.579c-0.267-1.352-0.62-3.203-2.687-3.922
			c-0.407-0.144-0.855,0.076-1,0.484c-0.144,0.407,0.076,0.855,0.49,0.996c1.129,0.396,1.382,1.295,1.656,2.74
			c0.041,0.217,0.089,0.438,0.137,0.659c-2.101,0.698-3.908,2.113-5.174,4.002c2.204,1.137,5.236,1.836,8.58,1.836
			C28.84,21.991,31.554,21.445,33.672,20.529z"/>
		<path d="M25.154,34.095V22.755c-3.186-0.099-6.067-0.825-8.241-1.962c-0.308,0.539-0.575,1.11-0.794,1.709
			c-1.345-0.794-3.039-1.222-4-1.461c-0.417-0.104-0.842,0.147-0.944,0.568c-0.109,0.421,0.144,0.845,0.568,0.95
			c1.831,0.458,3.135,0.963,3.912,1.504c-0.178,0.803-0.274,1.636-0.274,2.495c0,0.318,0.018,0.63,0.045,0.943
			c-1.136,0.718-2.32,1.422-3.433,1.933c-0.394,0.18-0.568,0.645-0.38,1.039c0.13,0.283,0.407,0.452,0.712,0.452
			c0.106,0,0.219-0.022,0.321-0.074c0.993-0.46,2.033-1.052,3.029-1.672c0.305,1.314,0.814,2.533,1.516,3.609
			c-1.047,1.026-1.766,2.587-2.286,3.731l-0.034,0.074c-0.178,0.394-0.007,0.856,0.383,1.036c0.106,0.048,0.219,0.068,0.329,0.068
			c0.294,0,0.582-0.168,0.712-0.459l0.034-0.073c0.417-0.917,1.04-2.277,1.807-3.123c0.972,1.116,2.156,2.006,3.484,2.594
			c1.386-0.077,2.416-0.455,2.998-1.1C25.223,34.867,25.154,34.102,25.154,34.095z M20.473,31.894c-0.968,0-1.759-0.789-1.759-1.759
			s0.791-1.759,1.759-1.759c0.972,0,1.759,0.789,1.759,1.759S21.445,31.894,20.473,31.894z M22.232,27.122
			c-0.78,0-1.414-0.635-1.414-1.42c0-0.783,0.637-1.418,1.414-1.418c0.79,0,1.423,0.635,1.423,1.418
			C23.655,26.487,23.019,27.122,22.232,27.122z"/>
		<path d="M25.565,35.542c-0.092,0.171-0.212,0.347-0.366,0.519c-0.465,0.525-1.136,0.896-1.978,1.122
			c0.691,0.165,1.41,0.255,2.142,0.255c0.812,0,1.595-0.116,2.348-0.314c-0.746-0.228-1.341-0.585-1.772-1.066
			C25.781,35.89,25.661,35.713,25.565,35.542z"/>
		<path d="M37.973,21.689c-0.793,0.197-2.087,0.525-3.264,1.08c-0.192-0.551-0.411-1.08-0.678-1.581
			c-2.204,0.982-5.003,1.571-8.056,1.584v11.281c-0.007,0.07-0.068,0.82,0.547,1.499c0.531,0.585,1.444,0.946,2.656,1.062
			c1.027-0.464,1.964-1.116,2.786-1.906c0.767,0.84,1.39,2.197,1.807,3.118l0.038,0.073c0.13,0.288,0.407,0.46,0.712,0.46
			c0.106,0,0.219-0.025,0.321-0.075c0.387-0.174,0.568-0.64,0.387-1.034l-0.034-0.073c-0.506-1.114-1.198-2.609-2.19-3.636
			c0.784-1.016,1.389-2.19,1.793-3.47c0.886,0.532,1.79,1.03,2.652,1.431c0.106,0.048,0.219,0.074,0.329,0.074
			c0.294,0,0.575-0.169,0.712-0.454c0.178-0.392,0.007-0.857-0.384-1.037c-0.944-0.438-1.95-1.013-2.929-1.615
			c0.103-0.619,0.165-1.254,0.165-1.909c0-0.769-0.072-1.515-0.219-2.24c0.787-0.392,1.851-0.763,3.237-1.11
			c0.418-0.101,0.668-0.525,0.568-0.95C38.823,21.84,38.398,21.585,37.973,21.689z M28.741,27.122c-0.787,0-1.424-0.635-1.424-1.42
			c0-0.783,0.64-1.418,1.424-1.418c0.78,0,1.417,0.635,1.417,1.418C30.161,26.487,29.521,27.122,28.741,27.122z M30.972,31.894
			c-0.969,0-1.759-0.789-1.759-1.759s0.791-1.759,1.759-1.759c0.972,0,1.759,0.789,1.759,1.759S31.944,31.894,30.972,31.894z"/>
	</g>
</g>
<g>
</g>
<g>
</g>
<g>
</g>
<g>
</g>
<g>
</g>
<g>
</g>
<g>
</g>
<g>
</g>
<g>
</g>
<g>
</g>
<g>
</g>
<g>
</g>
<g>
</g>
<g>
</g>
<g>
</g>
</svg>
