<?xml version="1.0" encoding="iso-8859-1"?>
<!-- Generator: Adobe Illustrator 19.0.0, SVG Export Plug-In . SVG Version: 6.00 Build 0)  -->
<svg version="1.1" id="Layer_1" xmlns="http://www.w3.org/2000/svg" xmlns:xlink="http://www.w3.org/1999/xlink" x="0px" y="0px"
	 viewBox="0 0 512 512" style="enable-background:new 0 0 512 512;" xml:space="preserve">
<g>
	<g>
		<path d="M423.331,426.041l-12.077-0.575l-21.221-44.208c-1.873-3.902-6.554-5.547-10.456-3.674
			c-3.902,1.872-5.546,6.554-3.674,10.456l22.278,46.411c1.832,3.822,5.594,6.332,9.851,6.552l9.745,0.464h-34.729l-15.038-20.541
			c-4.877-6.659-10.962-12.211-17.813-16.49c-0.223-0.174-0.453-0.343-0.699-0.496c-0.258-0.162-0.523-0.303-0.792-0.432
			c-9.757-5.732-20.984-8.894-32.539-8.894h-13.419c-0.048,0-0.095,0-0.142,0h-37.72c-4.328,0-7.837,3.509-7.837,7.837
			s3.509,7.837,7.837,7.837h27.007l-8.618,26.944c-1.485,4.625-0.664,9.727,2.197,13.65c2.858,3.918,7.458,6.258,12.307,6.258
			h47.774c6.36,0,11.536-5.18,11.536-11.546v-9.404c0-2.102-0.581-4.098-1.591-5.824l15.038,20.54
			c2.862,3.904,7.458,6.235,12.296,6.235h39.951c6.362,0,11.538-5.177,11.538-11.542v-8.034
			C434.318,431.384,429.485,426.322,423.331,426.041z M298.376,441.468l9.972-31.178h7.818c6.204,0,12.274,1.223,17.919,3.472
			l-7.44,11.86c-1.359,2.167-1.576,4.862-0.579,7.218c0.997,2.356,3.08,4.077,5.582,4.611l9.765,2.083v1.934H298.376z M347.95,424.9
			l-2.073-0.441l1.664-2.652c2.206,1.863,4.254,3.932,6.114,6.185C352.119,426.467,350.162,425.359,347.95,424.9z"/>
	</g>
</g>
<g>
	<g>
		<path d="M511.051,276.972c-1.915-5.105-6.457-8.742-11.849-9.489l-10.879-1.516c-10.581-1.465-20.455-5.909-28.575-12.868
			c-0.7-0.596-1.375-1.216-2.041-1.844c-0.111-0.104-0.231-0.203-0.34-0.307c-0.441-0.423-0.853-0.866-1.276-1.301
			c-0.313-0.324-0.646-0.639-0.948-0.968l-3.544-3.827c-0.278-0.299-0.567-0.585-0.855-0.872c-4.62-4.615-10.523-7.75-16.872-9.036
			c-2.045-0.415-4.135-0.647-6.243-0.666l-21.713-0.178c-1.039,0.016-2.064,0.189-3.024,0.58l-17.623,7.187l-28.148,11.475H188.834
			c-18.828,0-35.603,4.082-50.032,12.053c-4.878,2.694-9.478,5.842-13.808,9.417c-9.402-3.74-18.068-9.434-25.266-16.632
			c-14.111-14.101-21.882-32.861-21.882-52.825v-85.149c0-36.033-29.316-65.348-65.349-65.348h-0.481
			C5.391,54.856,0,60.247,0,66.872v30.751v103.278c0,23.374,5.149,45.807,15.304,66.677c1.894,3.892,6.585,5.511,10.476,3.617
			c3.892-1.894,5.511-6.584,3.617-10.476c-9.106-18.714-13.724-38.84-13.724-59.818v-90.034c7.448,6.162,12.016,15.416,12.016,25.48
			v62.286c0,47.988,26.881,91.585,69.139,113.311c-0.482,1.007-0.959,2.019-1.422,3.05c-0.006,0.013-0.008,0.026-0.015,0.04
			c-1.271,2.835-2.442,5.7-3.527,8.579c-15.614-7.748-29.832-18.556-41.474-31.601c-2.883-3.229-7.837-3.51-11.065-0.629
			c-3.229,2.882-3.51,7.837-0.629,11.065c13.481,15.105,30.069,27.518,48.284,36.212c-9.742,35.241-8.024,68.702-7.791,72.467V445.6
			c0,6.365,5.175,11.542,11.537,11.542h60.994h10.429h41.22c6.36,0,11.536-5.18,11.536-11.546v-10.282
			c0-5.321-3.606-9.928-8.764-11.201l-4.451-1.102l3.315-12.72h22.262c4.328,0,7.837-3.509,7.837-7.837
			c0-4.328-3.509-7.837-7.837-7.837H179.39c6.742-10.125,13.976-19.975,20.68-28.104c2.754-3.338,2.28-8.278-1.058-11.032
			c-3.339-2.754-8.279-2.28-11.032,1.058c-9.723,11.786-20.04,26.329-29.063,40.968l-0.126,0.205
			c-0.126,0.204-0.248,0.409-0.37,0.613c-0.007,0.011-0.017,0.022-0.024,0.033c-4.828,7.881-13.147,22.156-14.615,29.221
			c-0.429,2.067-0.006,4.218,1.171,5.968c1.179,1.751,3.012,2.953,5.088,3.333l8.976,1.646l-0.436,2.94h-6.861H94.864v-30.594
			c0-0.174-0.006-0.355-0.018-0.53c-0.031-0.473-2.901-46.637,13.584-85.972c11.59-4.419,25.518-10.782,40.549-18.536
			c27.733-14.297,95.293-10.068,144.621-6.98c26.155,1.637,46.814,2.931,57.331,1.326c14.328-2.183,24.535-7.76,34.406-13.155
			c1.892-1.033,3.839-2.083,5.814-3.122c4.988,2.677,10.17,4.056,15.394,4.056c2.44,0,4.89-0.3,7.332-0.904
			c4.648-1.151,8.162-5.112,8.745-9.851c0.141-1.144,0.275-2.672,0.328-4.463c2.46-0.419,4.983-0.768,7.624-1.04
			c8.631-0.891,16.13-2.22,22.41-3.948c9.695,7.329,21.077,12.058,33.181,13.735l9.366,1.306l-9.737,11.162
			c-5.505,6.307-13.432,10.218-21.76,10.74c-1.47,0.061-17.181,0.748-34.562,3.327c-16.519,2.451-39.461,7.004-47.935,18.197
			c-4.192,5.535-6.407,11.957-6.407,18.571c0,4.328,3.509,7.837,7.837,7.837c4.328,0,7.837-3.509,7.837-7.837
			c0-4.005,1.756-7.164,3.23-9.109c6.045-7.983,41.408-14.172,70.706-15.328c0.054-0.002,0.11-0.004,0.164-0.008
			c12.518-0.754,24.436-6.616,32.701-16.085l10.744-12.315C511.934,287.824,512.97,282.086,511.051,276.972z M169.502,410.291
			h19.308l-4.286,16.444c-0.529,2.027-0.224,4.182,0.847,5.983c1.071,1.8,2.818,3.097,4.853,3.601l9.01,2.231v2.919h-24.806
			l0.677-4.569c0.933-6.205-3.166-11.944-9.325-13.065l-3.431-0.629C164.017,419.881,166.368,415.563,169.502,410.291z
			 M104.444,298.233c-37.315-18.975-61.081-57.345-61.081-99.599v-62.286c0-18.921-10.921-35.942-27.69-43.974V70.63
			c25.917,1.643,46.498,23.25,46.498,49.574v85.149c0,21.134,7.199,41.153,20.436,57.256c1.891,2.3,3.905,4.52,6.039,6.653
			c1.241,1.241,2.52,2.447,3.832,3.613c6.188,5.501,13.131,10.138,20.55,13.757C109.976,290.219,107.11,294.086,104.444,298.233z
			 M377.82,273.271c-9.471,5.179-17.653,9.65-29.25,11.417c-8.858,1.352-29.772,0.043-53.99-1.474
			c-54.001-3.382-121.207-7.588-152.784,8.693c-7.38,3.808-14.465,7.26-21.096,10.288c0.211-0.292,0.418-0.588,0.631-0.876
			c0.115-0.156,0.231-0.311,0.347-0.466c0.545-0.725,1.099-1.439,1.66-2.14c0.055-0.069,0.109-0.139,0.164-0.208
			c1.256-1.558,2.552-3.052,3.884-4.488c0.138-0.148,0.278-0.295,0.417-0.442c0.525-0.557,1.055-1.104,1.592-1.643
			c0.162-0.162,0.323-0.324,0.485-0.484c0.581-0.573,1.169-1.135,1.765-1.687c0.095-0.089,0.189-0.18,0.285-0.267
			c0.706-0.648,1.421-1.281,2.146-1.898c0.087-0.073,0.175-0.143,0.261-0.216c0.614-0.518,1.236-1.025,1.864-1.522
			c0.21-0.166,0.423-0.329,0.634-0.493c0.525-0.405,1.054-0.805,1.588-1.194c0.23-0.168,0.459-0.336,0.69-0.502
			c0.584-0.417,1.174-0.824,1.769-1.224c0.165-0.111,0.328-0.227,0.494-0.336c0.75-0.495,1.51-0.976,2.277-1.443
			c0.213-0.13,0.43-0.253,0.645-0.38c0.559-0.332,1.122-0.659,1.69-0.978c0.299-0.167,0.601-0.33,0.903-0.494
			c0.505-0.273,1.013-0.54,1.523-0.801c0.312-0.16,0.626-0.321,0.941-0.478c0.561-0.278,1.129-0.544,1.697-0.808
			c0.258-0.12,0.514-0.246,0.774-0.363c0.787-0.354,1.583-0.694,2.385-1.023c0.338-0.138,0.679-0.268,1.019-0.4
			c0.506-0.199,1.013-0.395,1.525-0.584c0.39-0.144,0.783-0.283,1.177-0.421c0.478-0.167,0.958-0.33,1.441-0.489
			c0.402-0.133,0.806-0.265,1.211-0.392c0.519-0.162,1.044-0.315,1.568-0.466c0.53-0.154,1.062-0.305,1.598-0.448
			c0.664-0.178,1.328-0.351,2.001-0.514c0.446-0.109,0.898-0.207,1.348-0.307c0.466-0.106,0.933-0.209,1.403-0.306
			c0.475-0.099,0.953-0.193,1.433-0.284c0.457-0.087,0.916-0.169,1.377-0.25c0.488-0.086,0.975-0.171,1.467-0.249
			c0.479-0.075,0.962-0.142,1.445-0.21c0.849-0.12,1.704-0.23,2.566-0.328c0.494-0.056,0.987-0.116,1.487-0.165
			c0.527-0.052,1.06-0.095,1.591-0.139c0.456-0.038,0.911-0.075,1.37-0.108c0.543-0.038,1.09-0.071,1.637-0.1
			c0.458-0.024,0.917-0.044,1.378-0.064c0.553-0.022,1.104-0.046,1.662-0.061c0.473-0.013,0.952-0.016,1.428-0.022
			c0.495-0.006,0.988-0.018,1.488-0.018h169.819c1.015,0,2.02-0.196,2.959-0.58l11.332-4.621c0.414,2.667,1.529,5.255,3.359,7.471
			c0.543,0.657,1.092,1.295,1.646,1.914C377.906,273.224,377.863,273.248,377.82,273.271z M407.299,272.249
			c-4.151,0.177-7.996-1.49-11.26-3.75c-3.098-2.145-5.675-4.825-7.48-6.987c4.184-4.655,10.855-5.928,14.69-6.266
			C406.881,261.388,407.436,267.969,407.299,272.249z M428.967,256.113c-2.743,0.283-5.384,0.635-7.965,1.061
			c-0.701-2.393-1.637-4.846-2.863-7.3l9.362,0.077c0.579,0.005,1.156,0.042,1.728,0.104c0.149,0.017,0.296,0.047,0.444,0.068
			c0.412,0.056,0.821,0.117,1.227,0.202c0.221,0.046,0.439,0.11,0.658,0.165c0.327,0.081,0.653,0.164,0.974,0.263
			c0.245,0.077,0.484,0.168,0.724,0.255c0.288,0.104,0.576,0.209,0.859,0.328c0.248,0.104,0.491,0.22,0.734,0.336
			c0.266,0.128,0.531,0.257,0.79,0.397c0.24,0.131,0.475,0.267,0.709,0.409c0.253,0.153,0.503,0.31,0.747,0.475
			c0.224,0.15,0.443,0.305,0.658,0.466c0.246,0.183,0.485,0.372,0.721,0.568c0.198,0.164,0.395,0.33,0.586,0.504
			c0.083,0.075,0.16,0.157,0.241,0.234C436.121,255.268,432.671,255.73,428.967,256.113z"/>
	</g>
</g>
<g>
	<g>
		<circle cx="440.936" cy="280.063" r="7.837"/>
	</g>
</g>
<g>
</g>
<g>
</g>
<g>
</g>
<g>
</g>
<g>
</g>
<g>
</g>
<g>
</g>
<g>
</g>
<g>
</g>
<g>
</g>
<g>
</g>
<g>
</g>
<g>
</g>
<g>
</g>
<g>
</g>
</svg>
