<?xml version="1.0" encoding="iso-8859-1"?>
<!-- Generator: Adobe Illustrator 18.0.0, SVG Export Plug-In . SVG Version: 6.00 Build 0)  -->
<!DOCTYPE svg PUBLIC "-//W3C//DTD SVG 1.1//EN" "http://www.w3.org/Graphics/SVG/1.1/DTD/svg11.dtd">
<svg version="1.1" id="Capa_1" xmlns="http://www.w3.org/2000/svg" xmlns:xlink="http://www.w3.org/1999/xlink" x="0px" y="0px"
	 viewBox="0 0 450.907 450.907" style="enable-background:new 0 0 450.907 450.907;" xml:space="preserve">
<g>
	<path d="M385.889,160.436h-11.896c-9.948,0-25.161-18.63-35.386-43.335c-9.779-23.625-12.048-45.597-5.395-52.243
		c0.186-0.186,9.223-9.331,9.223-9.331c1.953-1.953,1.953-5.119,0-7.071c-1.951-1.952-5.119-1.952-7.07,0l-9.913,9.913
		c-2.619,2.089-7.091,3.2-13.067,3.2c-31.395,0-81.931-27.553-81.931-44.67V5c0-2.761-2.238-5-5-5c-2.761,0-5,2.239-5,5v11.898
		c0,7.628-11.375,18.516-28.98,27.736c-17.877,9.363-38.834,15.414-53.39,15.414c-7.145,0-12.337-1.417-15.016-4.096
		c-0.049-0.049-7.526-7.497-7.526-7.497c-1.953-1.952-5.118-1.952-7.071,0c-1.953,1.953-1.953,5.119,0,7.071l7.761,7.761
		c6.814,7.421,4.321,31.338-5.907,56.025c-9.872,23.828-23.923,41.123-33.41,41.123H65.018c-2.761,0-5,2.239-5,5
		c0,2.761,2.239,5,5,5h11.896c9.991,0,25.285,18.718,35.575,43.54c9.374,22.611,11.847,43.69,6.169,51.182l-10.188,10.188
		c-1.953,1.953-1.953,5.119,0,7.071c0.977,0.976,2.256,1.464,3.536,1.464c1.279,0,2.559-0.488,3.536-1.464
		c0,0,9.242-9.116,9.457-9.331c2.472-2.475,7.216-3.782,13.72-3.782c31.319,0,81.735,27.553,81.735,44.67v11.898
		c0,2.761,2.239,5,5,5c2.762,0,5-2.239,5-5v-11.898c0-7.629,11.38-18.516,28.99-27.736c11.322-5.928,23.876-10.521,35.261-13.099
		v75.168c-10.403,0.965-19.86,4.916-27.369,10.896h-22.477c-6.843,0-12.409,5.568-12.409,12.412v4.931
		c0,1.549,0.72,2.918,1.827,3.835h-2.493c-6.844,0-12.412,5.568-12.412,12.412v6.552c0,2.761,2.239,5,5,5
		c0.572,0,1.113-0.116,1.624-0.293c-1.973,2.198-3.185,5.093-3.185,8.272v12.384c0,2.761,2.239,5,5,5c2.762,0,5-2.239,5-5v-12.384
		c0-1.33,1.082-2.411,2.411-2.411h18.043c0.829,2.031,1.807,3.996,2.928,5.878h-6.202c-6.844,0-12.412,5.568-12.412,12.412v17.704
		c0,2.761,2.238,5,5,5c2.762,0,5-2.239,5-5v-17.704c0-1.33,1.082-2.412,2.412-2.412h14.25c9.014,8.51,21.578,13.808,35.464,13.808
		c13.886,0,26.449-5.297,35.462-13.808h14.25c1.331,0,2.414,1.082,2.414,2.412v17.704c0,2.761,2.238,5,5,5c2.762,0,5-2.239,5-5
		v-17.704c0-6.844-5.569-12.412-12.414-12.412h-6.202c1.121-1.883,2.099-3.847,2.928-5.878h18.045c1.329,0,2.41,1.082,2.41,2.411
		v12.384c0,2.761,2.238,5,5,5c2.762,0,5-2.239,5-5v-12.384c0-3.18-1.212-6.074-3.185-8.272c0.512,0.176,1.052,0.293,1.623,0.293
		c2.762,0,5-2.239,5-5v-6.552c0-6.844-5.568-12.412-12.412-12.412h-2.49c1.107-0.917,1.827-2.285,1.827-3.835v-4.931
		c0-6.844-5.568-12.412-12.412-12.412h-22.477c-7.508-5.98-16.964-9.931-27.367-10.896v-76.936c2.874-0.353,5.614-0.547,8.15-0.547
		c7.029,0,12.164,1.373,14.882,3.966l7.628,7.628c0.976,0.976,2.256,1.464,3.535,1.464s2.56-0.488,3.535-1.464
		c1.953-1.953,1.953-5.119,0-7.071l-7.192-7.193c-0.154-0.181-0.315-0.354-0.493-0.512c-6.875-7.371-4.391-31.36,5.859-56.111
		c9.862-23.812,23.901-41.095,33.384-41.095h11.896c2.762,0,5-2.239,5-5C390.889,162.675,388.651,160.436,385.889,160.436z
		 M242.449,376.546v-4.931c0-1.33,1.081-2.412,2.409-2.412h13.072c-2.393,3.442-4.309,7.191-5.642,11.177h-11.667
		C241.73,379.463,242.449,378.095,242.449,376.546z M235.222,399.913c-2.388,0-4.611,0.689-6.506,1.862
		c0.405-0.723,0.655-1.543,0.655-2.431v-6.552c0-1.33,1.082-2.412,2.412-2.412h18.47c-0.093,1.142-0.156,2.292-0.156,3.457
		c0,2.061,0.163,4.086,0.45,6.076H235.222z M299.704,429.599c-21.84,0-39.607-16.043-39.607-35.762
		c0-19.719,17.768-35.762,39.607-35.762c21.839,0,39.605,16.043,39.605,35.762C339.31,413.556,321.543,429.599,299.704,429.599z
		 M349.154,390.38h18.47c1.33,0,2.412,1.082,2.412,2.412v6.552c0,0.887,0.25,1.707,0.655,2.429
		c-1.895-1.172-4.118-1.861-6.504-1.861H348.86c0.287-1.989,0.45-4.015,0.45-6.076C349.31,392.673,349.246,391.523,349.154,390.38z
		 M347.117,380.38c-1.332-3.986-3.248-7.735-5.641-11.177h13.071c1.33,0,2.412,1.082,2.412,2.412v4.931
		c0,1.549,0.72,2.918,1.827,3.835H347.117z M329.366,120.925c5.839,14.105,14.692,29.668,24.806,39.511H329.5
		c-5.503,0-15.747-11-23.367-29.406c-7.455-18.011-7.691-31.514-4.127-35.074c0.001-0.001,0.001-0.002,0.002-0.002l17.418-17.418
		C319.387,91.523,323.715,107.271,329.366,120.925z M154.178,196.178c-3.835-9.251-9.167-18.828-15.321-25.742h31.94
		c1.414,0.117,5.859,4.186,9.757,13.086c4.029,9.2,3.891,15.355,3.157,16.584l-22.546,22.546
		C160.308,211.988,156.108,200.833,154.178,196.178z M260.764,150.27c0.857,2.069,2.713,6.188,5.385,10.166h-28.624l20.132-20.132
		C258.544,144.579,259.979,148.374,260.764,150.27z M258.071,190.983l-20.547-20.547h28.878c-2.422,3.686-4.108,7.427-4.9,9.341
		C260.629,181.881,259,186.195,258.071,190.983z M190.213,180.681c-0.864-2.085-2.74-6.239-5.436-10.245h28.605l-20.053,20.053
		C192.485,186.561,191.159,182.963,190.213,180.681z M192.843,139.898l20.538,20.538h-28.873c2.425-3.69,4.114-7.436,4.908-9.352
		C190.286,148.983,191.913,144.678,192.843,139.898z M230.453,124.717c5.978,4.054,13.641,7.112,20.142,8.507l-20.142,20.141
		V124.717z M220.453,153.366l-20.583-20.582c6.66-1.292,14.501-4.262,20.583-8.272V153.366z M220.453,177.507v28.637
		c-5.979-4.057-13.64-7.117-20.132-8.506L220.453,177.507z M230.453,177.508l20.583,20.583c-6.661,1.293-14.502,4.263-20.583,8.271
		V177.508z M260.187,123.632c-0.239,0.125-1.006,0.431-2.752,0.431c-10.932,0-26.706-9.822-26.981-13.274V78.778
		c4.828,4.27,10.488,7.744,14.796,10.084c12.549,6.816,26.589,11.275,37.61,12.098L260.187,123.632z M220.453,110.775
		c-0.387,3.507-15.685,12.728-27.142,12.728c-2.553,0-3.306-0.596-3.309-0.599c-0.001,0-22.898-22.887-22.898-22.887
		c11.294-0.666,25.731-4.984,38.492-11.667c4.325-2.266,10.012-5.644,14.857-9.828V110.775z M160.086,107.142l22.877,22.876
		c0.804,1.014,1.24,7.008-2.4,16.287c-3.819,9.733-8.477,13.995-9.757,14.132h-32.327c5.692-6.547,10.618-15.446,14.182-24.048
		C156.522,127.067,159.55,116.445,160.086,107.142z M190.715,207.289c0.062-0.042,0.758-0.479,2.827-0.479
		c10.914,0,26.635,9.814,26.912,13.281c0,0.003,0,0.006,0,0.009v31.964c-4.816-4.27-10.459-7.748-14.754-10.091
		c-12.546-6.845-26.571-11.334-37.573-12.14C168.126,229.833,190.668,207.335,190.715,207.289z M230.453,220.098
		c0.389-3.507,15.694-12.729,27.154-12.729c2.446,0,3.219,0.528,3.28,0.573l22.915,22.915c-11.296,0.67-25.728,4.986-38.484,11.665
		c-4.328,2.266-10.018,5.645-14.865,9.83V220.098z M290.839,223.751l-22.787-22.786c-0.048-0.05-0.085-0.11-0.135-0.158
		c-0.778-1.157-1.144-7.113,2.435-16.244c3.815-9.729,8.47-13.99,9.748-14.126c0.006,0,0.011,0,0.017,0h32.313
		c-5.688,6.544-10.607,15.436-14.168,24.033C294.397,203.801,291.368,214.438,290.839,223.751z M280.109,160.436
		c-1.415-0.118-5.855-4.197-9.733-13.113c-4.101-9.43-3.831-15.661-3.044-16.653c0.008-0.008,0.015-0.015,0.022-0.023
		c0.064-0.064,22.603-22.642,22.603-22.642c0.61,8.6,3.4,18.306,6.938,26.85c3.804,9.188,9.091,18.701,15.196,25.581H280.109z
		 M312.254,71.565L294.94,88.879c0,0.001-0.001,0.001-0.002,0.002c-1.434,1.433-4.494,2.222-8.618,2.222
		c-9.715,0-23.962-4.329-36.297-11.029c-13.518-7.342-19.569-14.674-19.569-18.684V36.81
		C248.809,55.816,288.197,71.51,312.254,71.565z M138.084,70.049c16.297,0,38.533-6.343,58.03-16.556
		c7.159-3.75,17.019-9.676,24.339-16.993v24.89c0,9.893-33.596,28.728-56.2,28.728c-4.533,0-7.893-0.863-9.459-2.43
		c-0.034-0.034-0.075-0.057-0.11-0.09l-17.567-17.566C137.44,70.036,137.755,70.049,138.084,70.049z M119.563,123.14
		c5.918-14.285,10.702-31.772,10.48-46.04l17.84,17.84c3.768,4.208,3.149,19.252-4.462,37.621
		c-7.502,18.106-16.942,27.876-22.015,27.876H96.456C105.73,151.208,113.863,136.9,119.563,123.14z M121.727,210.146
		c-5.879-14.181-14.793-29.83-24.964-39.71h24.643c5.541,0,15.859,11.061,23.534,29.572c7.087,17.093,7.624,30.089,4.576,34.292
		l-17.844,17.844C131.641,239.248,127.332,223.667,121.727,210.146z M138.718,259.304c-0.022,0-0.042,0.001-0.064,0.001
		c0,0,17.341-17.25,17.496-17.405c1.423-1.425,4.459-2.21,8.549-2.21c9.682,0,23.895,4.342,36.211,11.061
		c13.501,7.365,19.544,14.715,19.544,18.732v24.558C202.094,275.012,162.702,259.304,138.718,259.304z M254.806,277.378
		c-7.163,3.75-17.028,9.677-24.352,16.996v-24.89c0-3.928,6.031-11.048,19.504-18.103c12.329-6.456,26.742-10.626,36.718-10.626
		c3.447,0,6.211,0.501,8.029,1.429v20.715C281.886,265.545,267.747,270.603,254.806,277.378z M312.855,260.824
		c-2.575,0-5.313,0.176-8.15,0.482v-9.548l9.084,9.084C313.476,260.837,313.172,260.824,312.855,260.824z M331.37,207.705
		c-5.925,14.305-10.711,31.82-10.476,46.102c0,0-17.822-17.844-17.855-17.874c-3.765-4.22-3.145-19.272,4.462-37.638
		c7.495-18.095,16.928-27.859,21.999-27.859h24.954C345.188,179.66,337.064,193.956,331.37,207.705z"/>
	<path d="M284.773,404.773c-1.319,0-2.609,0.53-3.539,1.46c-0.931,0.93-1.461,2.22-1.461,3.54c0,1.31,0.53,2.6,1.461,3.53
		c0.93,0.93,2.22,1.47,3.539,1.47c1.311,0,2.601-0.54,3.53-1.47c0.931-0.93,1.47-2.22,1.47-3.53c0-1.32-0.539-2.61-1.47-3.54
		C287.373,405.304,286.083,404.773,284.773,404.773z"/>
	<path d="M314.633,404.773c-1.31,0-2.6,0.53-3.53,1.46c-0.93,0.93-1.47,2.22-1.47,3.54s0.54,2.6,1.47,3.53
		c0.931,0.93,2.221,1.47,3.53,1.47c1.32,0,2.61-0.54,3.54-1.47c0.93-0.93,1.46-2.211,1.46-3.53s-0.53-2.61-1.46-3.54
		C317.243,405.304,315.953,404.773,314.633,404.773z"/>
</g>
<g>
</g>
<g>
</g>
<g>
</g>
<g>
</g>
<g>
</g>
<g>
</g>
<g>
</g>
<g>
</g>
<g>
</g>
<g>
</g>
<g>
</g>
<g>
</g>
<g>
</g>
<g>
</g>
<g>
</g>
</svg>
