<?xml version="1.0" encoding="iso-8859-1"?>
<!-- Generator: Adobe Illustrator 16.0.0, SVG Export Plug-In . SVG Version: 6.00 Build 0)  -->
<!DOCTYPE svg PUBLIC "-//W3C//DTD SVG 1.1//EN" "http://www.w3.org/Graphics/SVG/1.1/DTD/svg11.dtd">
<svg version="1.1" id="Capa_1" xmlns="http://www.w3.org/2000/svg" xmlns:xlink="http://www.w3.org/1999/xlink" x="0px" y="0px"
	 width="122.064px" height="122.063px" viewBox="0 0 122.064 122.063" style="enable-background:new 0 0 122.064 122.063;"
	 xml:space="preserve">
<g>
	<g>
		<circle cx="72.003" cy="20.467" r="11.726"/>
		<path d="M79.802,35.047c-0.194-0.119-0.4-0.206-0.604-0.292c-1.308-0.873-2.774-1.516-4.272-1.884l-2.922,2.942l-2.832-2.974
			c-0.009,0.003-0.02,0.003-0.029,0.007c-1.523,0.363-3.019,1.017-4.346,1.906c-0.736,0.312-1.406,0.806-1.91,1.502
			c-0.074,0.102-0.143,0.199-0.215,0.3c-0.699,0.751-1.289,1.596-1.737,2.516c-0.186,0.275-0.366,0.549-0.541,0.81
			c-4.072,6.119-5.755,8.654-22.064,8.307c-2.526-0.084-4.595,1.941-4.647,4.454c-0.053,2.515,1.942,4.594,4.455,4.646
			c0.874,0.02,1.714,0.028,2.529,0.028c9.737,0,15.385-1.313,19.336-3.742v15.375c0,1.228,0.237,2.369,0.654,3.419
			c-0.032,0.237-0.054,0.477-0.054,0.723l0.003,43.594c0,2.971,2.409,5.38,5.38,5.38c2.972,0,5.38-2.409,5.38-5.38l-0.003-37.413
			c0.214,0.01,0.427,0.026,0.641,0.026c0.043,0,0.084-0.006,0.125-0.006v37.393c0,2.971,2.408,5.38,5.379,5.38l0,0
			c2.971,0,5.381-2.409,5.381-5.38V73.356c0.705-1.306,1.117-2.783,1.117-4.407V54.322c1.059,3.851,1.489,8.995,0.936,16.079
			c-0.196,2.506,1.678,4.696,4.184,4.896c0.121,0.01,0.241,0.012,0.36,0.012c2.353,0,4.347-1.811,4.534-4.196
			C95.812,48.178,88.248,40.224,79.802,35.047z M71.976,59.021l-2.827-3.87l2.827-18.901h0.056l2.828,18.901l-2.828,3.87H71.976z"/>
		<path d="M52.403,45.419h-0.772v-2.93h-2.777V31.13h-2.249v-4.151h-1.253V15.451h-1.476V0H36.34v15.451h-1.476v11.527h-1.253v4.151
			h-2.249v11.359h-2.778v2.93h-0.805v1.255h24.624V45.419z M34.506,41.896H32.14v-2.368h2.366V41.896z M34.506,38.273H32.14v-2.368
			h2.366V38.273z M34.506,34.555H32.14v-2.367h2.366V34.555z M44.574,16.547v2.363h-2.366v-2.363H44.574z M44.574,20.215v2.366
			h-2.366v-2.366H44.574z M40.493,1.094h2.366v2.367h-2.366V1.094z M40.493,4.909h2.366v2.365h-2.366V4.909z M40.493,8.965h2.366
			v2.365h-2.366V8.965z M40.493,12.827h2.366v2.366h-2.366V12.827z M38.924,22.581v-2.366h2.366v2.366H38.924z M41.29,23.931v2.367
			h-2.366v-2.367H41.29z M38.924,18.91v-2.363h2.366v2.363H38.924z M37.194,1.094h2.366v2.367h-2.366V1.094z M37.194,4.909h2.366
			v2.365h-2.366V4.909z M37.194,8.965h2.366v2.365h-2.366V8.965z M37.194,12.827h2.366v2.366h-2.366V12.827z M35.625,16.547h2.365
			v2.363h-2.365V16.547z M35.625,20.215h2.365v2.366h-2.365V20.215z M35.625,23.931h2.365v2.367h-2.365V23.931z M37.805,45.419
			h-2.366v-5.892h2.366V45.419z M37.805,38.273h-2.366v-2.368h2.366V38.273z M37.805,34.555h-2.366v-2.367h2.366V34.555z
			 M37.999,30.015h-2.367V27.65h2.367V30.015z M41.282,45.419h-2.366v-5.892h2.366V45.419z M41.282,38.273h-2.366v-2.368h2.366
			V38.273z M41.282,34.555h-2.366v-2.367h2.366V34.555z M41.298,30.015h-2.366V27.65h2.366V30.015z M42.207,23.931h2.366v2.367
			h-2.366V23.931z M42.216,27.65h2.366v2.365h-2.366V27.65z M44.646,45.419H42.28v-5.892h2.366V45.419z M44.646,38.273H42.28v-2.368
			h2.366V38.273z M44.646,34.555H42.28v-2.367h2.366V34.555z M47.929,41.896h-2.366v-2.368h2.366V41.896z M47.929,38.273h-2.366
			v-2.368h2.366V38.273z M47.929,34.555h-2.366v-2.367h2.366V34.555z"/>
	</g>
</g>
<g>
</g>
<g>
</g>
<g>
</g>
<g>
</g>
<g>
</g>
<g>
</g>
<g>
</g>
<g>
</g>
<g>
</g>
<g>
</g>
<g>
</g>
<g>
</g>
<g>
</g>
<g>
</g>
<g>
</g>
</svg>
