<?xml version="1.0" encoding="iso-8859-1"?>
<!-- Generator: Adobe Illustrator 17.1.0, SVG Export Plug-In . SVG Version: 6.00 Build 0)  -->
<!DOCTYPE svg PUBLIC "-//W3C//DTD SVG 1.1//EN" "http://www.w3.org/Graphics/SVG/1.1/DTD/svg11.dtd">
<svg version="1.1" id="Capa_1" xmlns="http://www.w3.org/2000/svg" xmlns:xlink="http://www.w3.org/1999/xlink" x="0px" y="0px"
	 viewBox="0 0 387.842 387.842" style="enable-background:new 0 0 387.842 387.842;" xml:space="preserve">
<path d="M193.917,59.989c-14.726,0-26.706,10.394-26.706,23.17s11.98,23.17,26.706,23.17c14.728,0,26.71-10.394,26.71-23.17
	S208.645,59.989,193.917,59.989z M193.917,90.329c-5.703,0-10.706-3.35-10.706-7.17s5.003-7.17,10.706-7.17
	c5.705,0,10.71,3.35,10.71,7.17S199.622,90.329,193.917,90.329z M291.251,126.71c-0.061-0.437-0.155-0.862-0.282-1.274
	l-25.014-88.034V8c0-4.418-3.582-8-8-8h-128.07c-4.418,0-8,3.582-8,8v29.402l-25.012,88.034c-0.128,0.413-0.223,0.842-0.282,1.281
	c-0.059,0.425-0.083,0.848-0.073,1.267v251.859c0,4.418,3.582,8,8,8h178.807c4.418,0,8-3.582,8-8v-38.404
	c0.002-0.104,0.002-0.209,0-0.313v-92.146c0.003-0.118,0.003-0.236,0-0.354V127.983C291.334,127.562,291.31,127.137,291.251,126.71z
	 M137.885,16h112.07v14.516h-112.07V16z M135.929,46.516h115.982l20.823,73.285H232.64c0,0,0,0-0.001,0H115.108L135.929,46.516z
	 M249.952,185.613c-0.164,9.408-7.868,17.01-17.313,17.01c-9.448,0-17.153-7.602-17.317-17.01
	c0.968-5.043,11.969-27.911,17.316-39.025C237.972,157.675,248.985,180.569,249.952,185.613z M112.518,194.776h24.838
	c5.108,2.93,9.536,5.362,13.151,7.348c8.981,4.935,14.402,7.914,15.946,10.588c1.544,2.674,1.413,8.86,1.196,19.107
	c-0.095,4.49-0.213,10.079-0.213,16.652c0,6.573,0.118,12.162,0.213,16.652c0.217,10.248,0.348,16.433-1.196,19.108
	c-1.544,2.674-6.965,5.653-15.946,10.588c-3.938,2.164-8.838,4.856-14.532,8.144c-5.689,3.285-10.468,6.18-14.308,8.507
	c-3.609,2.187-6.629,4.017-9.149,5.414V194.776z M275.324,334.797c-3.79,0.841-7.016,1.62-9.645,2.254
	c-4.899,1.183-9.532,2.302-10.67,1.938c-1.141-0.363-4.273-3.947-7.591-7.742c-1.914-2.191-4.298-4.917-7.174-8.071
	c-2.877-3.155-5.373-5.778-7.379-7.886c-3.474-3.651-6.754-7.099-7.011-8.267c-0.256-1.17,1.282-5.677,2.911-10.45
	c0.939-2.752,2.108-6.177,3.4-10.242c1.294-4.069,2.317-7.542,3.141-10.334c1.425-4.835,2.771-9.401,3.655-10.208
	c0.885-0.806,5.555-1.727,10.5-2.702c2.854-0.563,6.405-1.263,10.575-2.177c4.164-0.913,7.681-1.762,10.507-2.445
	c1.667-0.402,3.302-0.797,4.779-1.129V334.797z M275.324,241.014c-2.474,0.436-5.249,1.106-8.535,1.9
	c-2.896,0.699-6.179,1.492-10.178,2.369c-4.004,0.878-7.318,1.531-10.243,2.108c-9.027,1.78-14.001,2.76-18.187,6.578
	c-4.187,3.818-5.619,8.679-8.222,17.506c-0.843,2.86-1.799,6.103-3.041,10.01c-1.241,3.904-2.332,7.101-3.295,9.921
	c-2.973,8.71-4.609,13.508-3.397,19.042c1.213,5.535,4.706,9.207,11.048,15.872c2.056,2.16,4.386,4.609,7.148,7.639
	c2.763,3.029,4.986,5.574,6.949,7.819c6.056,6.929,9.391,10.745,14.791,12.462c5.402,1.717,10.329,0.526,19.272-1.634
	c1.789-0.432,3.726-0.9,5.889-1.401v20.639H112.518v-37.318c4.809-1.716,10.065-4.901,17.441-9.37
	c3.972-2.406,8.474-5.134,14.016-8.334c5.548-3.203,10.164-5.74,14.237-7.978c11.813-6.491,18.319-10.066,22.098-16.611
	s3.621-13.969,3.337-27.446c-0.099-4.645-0.21-9.91-0.21-16.314c0-6.404,0.111-11.668,0.21-16.313
	c0.284-13.477,0.441-20.901-3.337-27.445s-10.285-10.12-22.099-16.611c-4.072-2.238-8.688-4.774-14.215-7.965l-0.477-0.277
	c-1.222-0.71-2.608-1.084-4.021-1.084h-26.98v-42.975h107.553c-0.585,1.218-1.195,2.486-1.823,3.791
	c-13.969,29.032-18.929,40.303-18.929,45.713c0,18.371,14.947,33.317,33.32,33.317c18.371,0,33.316-14.946,33.316-33.317
	c0-5.407-4.954-16.667-18.908-45.672c-0.635-1.319-1.251-2.602-1.842-3.832h30.119V241.014z"/>
<g>
</g>
<g>
</g>
<g>
</g>
<g>
</g>
<g>
</g>
<g>
</g>
<g>
</g>
<g>
</g>
<g>
</g>
<g>
</g>
<g>
</g>
<g>
</g>
<g>
</g>
<g>
</g>
<g>
</g>
</svg>
