<?xml version="1.0" encoding="iso-8859-1"?>
<!-- Generator: Adobe Illustrator 18.0.0, SVG Export Plug-In . SVG Version: 6.00 Build 0)  -->
<!DOCTYPE svg PUBLIC "-//W3C//DTD SVG 1.1//EN" "http://www.w3.org/Graphics/SVG/1.1/DTD/svg11.dtd">
<svg version="1.1" id="Capa_1" xmlns="http://www.w3.org/2000/svg" xmlns:xlink="http://www.w3.org/1999/xlink" x="0px" y="0px"
	 viewBox="0 0 496.773 496.773" style="enable-background:new 0 0 496.773 496.773;" xml:space="preserve">
<g>
	<path d="M231.724,118.527c0.344-0.021,34.59-2.173,48.705,8.673c0.048,0.037,0.102,0.063,0.151,0.097
		c10.059,8.368,22.977,13.41,37.053,13.41c13.676,0,26.471-4.841,36.549-13.018c0.093-0.058,0.189-0.106,0.278-0.172
		c15.689-11.553,53.57-9.017,53.948-8.991c2.196,0.152,4.125-1.372,4.492-3.528c6.152-36.254-7.665-67.478-39.957-90.294
		C349.345,8.03,324.389,1.724,322.587,1.283C320.295,0.66,316.05,0,313.299,0c-8.412,0-13.956,3.912-17.93,8.021
		c-2.621-0.904-5.348-1.369-8.144-1.369c-6.64,0-12.895,2.534-17.632,7.14c-1.524,1.299-14.538,12.627-26.172,30.077
		c-16.282,24.423-21.849,49.14-16.099,71.478C227.834,117.327,229.69,118.668,231.724,118.527z M268.107,82.682
		c0-13.619,5.554-26.477,15.329-35.807c14.837,14.22,45.745,40.174,81.824,49.395c-5.989,21.029-25.451,35.938-47.628,35.938
		C290.324,132.207,268.107,109.99,268.107,82.682z M275.191,20.188c0.086-0.071,0.168-0.146,0.247-0.225
		c3.152-3.103,7.338-4.812,11.787-4.812c2.571,0,5.062,0.588,7.402,1.748c1.788,0.885,3.891,0.386,5.124-1.073l0.009,0.008
		c4.402-5.21,8.325-7.335,13.538-7.335c1.729,0,5.31,0.502,7.093,0.995c0.045,0.013,0.091,0.024,0.137,0.035
		c0.246,0.059,24.85,6.104,47.51,22.116c28.733,20.301,41.182,46.6,37.042,78.209c-7.367-0.252-23.674-0.292-38.065,3.273
		c2.858-4.61,5.084-9.668,6.565-15.059c4.882,0.863,9.838,1.402,14.848,1.533c0.038,0.002,0.075,0.002,0.113,0.002
		c2.296,0,4.186-1.83,4.247-4.139c0.062-2.347-1.791-4.298-4.138-4.36c-55.959-1.468-107.671-58.829-108.187-59.408
		c-1.561-1.753-4.247-1.908-6-0.35c-1.753,1.561-1.91,4.245-0.35,5.999c0.285,0.321,1.422,1.584,3.301,3.532
		c-11.357,10.919-17.807,25.917-17.807,41.802c0,11.043,3.104,21.374,8.48,30.171c-12.756-3.096-26.791-3.153-33.294-2.966
		C225.429,62.761,274.683,20.617,275.191,20.188z"/>
	<path d="M486.282,144.066c-1.926-5.322-6.434-17.786-18.89-13.284c-1.784,0.645-3.802,1.677-5.875,2.976
		c0.52-2.4,0.807-4.657,0.807-6.561c0-13.248-13.256-13.248-18.916-13.248c-5.66,0-18.916,0-18.916,13.248
		c0,1.778,0.249,3.865,0.705,6.089c-1.93-1.214-3.805-2.183-5.477-2.808c-6.379-2.387-10.609-0.051-13.032,2.33
		c-2.76,2.712-4.517,6.766-6.005,10.742c-1.488,3.978-2.825,8.189-2.523,12.047c0.265,3.387,1.92,7.926,8.3,10.313
		c1.692,0.633,3.772,1.138,6.058,1.49c-1.848,1.409-3.438,2.854-4.625,4.227c-8.668,10.015,1.353,18.69,5.634,22.395
		c2.816,2.438,8.119,7.028,13.888,7.027c2.997,0,6.121-1.24,9.086-4.665c0.883-1.021,1.773-2.269,2.638-3.676v44.331l-70.987-73.153
		c-0.438-0.463,0.453,0.451,0,0l0,0c-0.008-0.008,0.006,0.008,0,0c-12.375-12.27-30.986-20.342-50.518-20.342
		c-19.279,0-37.273,7.456-49.622,19.384c-0.259,0.169-0.506,0.362-0.73,0.594l-73.714,75.964c-9.834,10.1-9.619,26.317,0.48,36.152
		c4.957,4.827,11.39,7.233,17.82,7.233c5.117,0,10.231-1.529,14.605-4.568l-3.244,11.061h-79.326
		c-11.988-25.305-11.926-49.92,0.199-75.232c1.014-2.117,0.12-4.655-1.997-5.669c-1.243-0.595-2.627-0.517-3.767,0.065l-0.006-0.01
		c-10.692,5.58-21.261,8.689-31.813,9.341v-29.13c0.679,1.075,1.371,2.054,2.062,2.876c3.124,3.72,6.476,4.81,9.332,4.81
		c1.15,0,2.22-0.177,3.162-0.43c3.736-1.004,7.261-3.671,10.511-6.401c3.252-2.731,6.485-5.742,8.12-9.249
		c1.435-3.08,2.226-7.846-2.156-13.063c-1.188-1.414-2.792-2.909-4.66-4.37c2.357-0.327,4.506-0.815,6.248-1.445
		c6.406-2.316,8.112-6.837,8.415-10.221c0.345-3.854-0.944-8.08-2.389-12.073c-1.925-5.322-6.432-17.785-18.89-13.284
		c-1.784,0.645-3.802,1.677-5.875,2.976c0.52-2.4,0.807-4.657,0.807-6.561c0-13.248-13.256-13.248-18.916-13.248
		c-5.66,0-18.916,0-18.916,13.248c0,1.778,0.249,3.865,0.706,6.089c-1.932-1.214-3.806-2.183-5.478-2.808
		c-6.378-2.387-10.609-0.052-13.032,2.33c-2.76,2.712-4.517,6.766-6.005,10.742c-1.488,3.978-2.825,8.189-2.523,12.047
		c0.265,3.387,1.92,7.926,8.3,10.313c1.692,0.633,3.772,1.138,6.058,1.49c-1.848,1.409-3.438,2.854-4.625,4.227
		c-8.668,10.015,1.354,18.69,5.634,22.396c2.816,2.438,8.119,7.028,13.888,7.027c2.997,0,6.121-1.24,9.086-4.665
		c0.883-1.021,1.774-2.269,2.638-3.676v30.047c-10.543-0.67-21.101-3.791-31.784-9.365l-0.024,0.047
		c-1.143-0.588-2.53-0.668-3.777-0.071c-2.117,1.014-3.011,3.552-1.997,5.669c12.124,25.313,12.187,49.928,0.199,75.232H22.296
		c-7.857,0-14.25,6.393-14.25,14.25v178.908c0,7.857,6.393,14.25,14.25,14.25H469.62c7.857,0,14.25-6.393,14.25-14.25V303.615
		c0-7.857-6.393-14.25-14.25-14.25h-57.61l-3.197-10.907c4.318,2.94,9.35,4.418,14.387,4.418c6.433,0,12.871-2.406,17.832-7.237
		c7.101-6.915,9.309-16.983,6.581-25.861c0.005-0.085,0.025-0.166,0.025-0.252v-55.893c0.679,1.075,1.371,2.054,2.061,2.876
		c3.124,3.72,6.476,4.809,9.332,4.809c1.15,0,2.22-0.177,3.162-0.43c3.736-1.004,7.261-3.671,10.511-6.401
		c3.252-2.732,6.485-5.742,8.12-9.249c1.435-3.08,2.226-7.846-2.156-13.063c-1.188-1.414-2.792-2.909-4.66-4.37
		c2.357-0.327,4.506-0.815,6.248-1.445c6.406-2.316,8.112-6.837,8.415-10.221C489.016,152.286,487.727,148.06,486.282,144.066z
		 M443.388,166.305c-0.372,0-0.734-0.038-1.09-0.096c-0.017-0.003-0.035-0.006-0.053-0.009c-2.752-0.472-4.94-2.61-5.478-5.34
		c-0.003-0.019-0.005-0.037-0.008-0.056c-0.077-0.406-0.121-0.822-0.121-1.25c0-3.722,3.028-6.75,6.75-6.75s6.75,3.028,6.75,6.75
		c0,0.75-0.128,1.469-0.354,2.143c-0.002,0.008-0.006,0.015-0.008,0.021C448.87,164.381,446.352,166.305,443.388,166.305z
		 M443.408,122.449c10.416,0,10.416,2.096,10.416,4.748c0,4.168-2.399,12.563-5.916,17.792c-1.429-0.444-2.947-0.684-4.521-0.684
		c-1.561,0-3.066,0.237-4.485,0.676c-3.514-5.232-5.91-13.618-5.91-17.783C432.992,124.545,432.992,122.449,443.408,122.449z
		 M406.635,154.935c-0.173-2.212,0.919-5.489,2.01-8.404c1.091-2.914,2.418-6.104,4.001-7.658c0.764-0.751,1.653-1.345,4.096-0.433
		c3.908,1.461,10.941,6.661,14.603,11.794c-1.827,2.355-2.973,5.252-3.161,8.41c-6.132,1.462-14.84,0.767-18.744-0.694
		C406.995,157.035,406.718,156.001,406.635,154.935z M430.072,190.822c-1.736,2.005-3.108,3.589-10.983-3.227
		c-7.875-6.818-6.504-8.401-4.77-10.406c2.732-3.155,10.054-7.939,16.138-9.588c1.615,2.586,3.974,4.655,6.785,5.9
		C436.477,179.756,432.799,187.672,430.072,190.822z M362.39,170.14C362.456,170.218,362.316,170.064,362.39,170.14L362.39,170.14
		c4.602,5.163,9.608,12.756,11.457,19.257l42.222,144.029H219.167l19.059-64.996h112.208c2.348,0,4.25-1.902,4.25-4.25
		c0-2.348-1.902-4.25-4.25-4.25H240.939c-0.078,0-0.15,0.019-0.228,0.023l20.702-70.6c6.09-21.618,29.733-37.309,56.22-37.309
		C334.765,152.045,351.605,159.59,362.39,170.14z M262.301,361.957h41.353c-0.032,0.209-0.064,0.417-0.064,0.635v103.34
		c0,11.365-9.246,20.611-20.611,20.611c-11.366,0-20.613-9.246-20.613-20.611v-103.34
		C262.365,362.374,262.333,362.166,262.301,361.957z M312.09,465.932v-103.34c0-0.218-0.032-0.426-0.064-0.635h11.184
		c-0.032,0.209-0.065,0.417-0.065,0.635v103.34c0,8.967,4.078,16.997,10.474,22.342h-32.002
		C308.012,482.929,312.09,474.898,312.09,465.932z M352.257,486.543c-11.365,0-20.612-9.246-20.612-20.611v-103.34
		c0-0.218-0.032-0.426-0.064-0.635h41.353c-0.032,0.209-0.064,0.417-0.064,0.635v103.34
		C372.869,477.297,363.622,486.543,352.257,486.543z M213.293,353.457l3.389-11.557c0.087,0.005,0.17,0.025,0.258,0.025h201.621
		l3.38,11.531H213.293z M224.109,269.228c-6.566,6.74-17.391,6.886-24.133,0.32c-6.741-6.564-6.885-17.391-0.315-24.138
		l52.243-53.838l-20.541,70.052L224.109,269.228z M95.647,155.958c-0.003-0.019-0.004-0.037-0.008-0.056
		c-0.077-0.406-0.121-0.822-0.121-1.25c0-3.722,3.028-6.75,6.75-6.75c3.722,0,6.75,3.028,6.75,6.75c0,0.753-0.13,1.475-0.358,2.152
		c-0.001,0.003-0.002,0.006-0.003,0.009c-0.904,2.664-3.424,4.589-6.389,4.589C98.994,161.402,96.258,159.057,95.647,155.958z
		 M132,176.746c-0.938,2.012-3.499,4.328-5.883,6.33c-2.382,2.002-5.105,4.125-7.249,4.701c-1.032,0.278-2.101,0.361-3.778-1.638
		c-2.682-3.192-6.244-11.163-6.915-17.429c2.837-1.196,5.23-3.232,6.889-5.789c6.057,1.742,13.296,6.628,15.978,9.819
		C132.719,174.739,132.452,175.775,132,176.746z M129.163,133.874c2.494-0.903,4.466-1.614,8.006,8.181
		c1.059,2.926,2.114,6.216,1.916,8.426c-0.095,1.065-0.384,2.097-2.839,2.983c-3.923,1.419-12.649,2.017-18.764,0.481
		c-0.146-3.163-1.254-6.072-3.047-8.448C118.156,140.408,125.241,135.291,129.163,133.874z M102.289,117.547
		c10.416,0,10.416,2.096,10.416,4.748c0,4.168-2.399,12.563-5.916,17.792c-1.429-0.444-2.947-0.685-4.521-0.685
		c-1.561,0-3.066,0.237-4.485,0.676c-3.514-5.231-5.91-13.618-5.91-17.783C91.873,119.643,91.873,117.547,102.289,117.547z
		 M65.516,150.032c-0.173-2.212,0.919-5.489,2.01-8.404c1.091-2.914,2.418-6.104,4.001-7.658c0.764-0.75,1.653-1.346,4.096-0.433
		c3.908,1.461,10.941,6.661,14.604,11.794c-1.827,2.355-2.973,5.252-3.161,8.41c-6.132,1.463-14.84,0.767-18.744-0.694
		C65.876,152.133,65.599,151.099,65.516,150.032z M88.953,185.92c-1.736,2.005-3.108,3.589-10.983-3.227
		c-7.875-6.818-6.504-8.401-4.77-10.406c2.731-3.155,10.054-7.939,16.138-9.588c1.615,2.586,3.974,4.655,6.785,5.899
		C95.357,174.854,91.68,182.77,88.953,185.92z M72.353,220.598c9.946,3.869,19.932,5.806,29.916,5.806
		c9.985,0,19.97-1.936,29.915-5.805c-8.244,22.868-7.441,45.936,2.396,68.767H69.958C79.795,266.535,80.598,243.467,72.353,220.598z
		 M16.546,482.523v-12.75h188.081c2.348,0,4.25-1.902,4.25-4.25c0-2.348-1.902-4.25-4.25-4.25H16.546v-114.5h86.148
		c2.348,0,4.25-1.902,4.25-4.25c0-2.348-1.902-4.25-4.25-4.25H16.546v-34.658c0-3.171,2.579-5.75,5.75-5.75h198.44l-17.196,58.646
		c-0.377,1.285-0.126,2.672,0.676,3.744c0.803,1.071,2.063,1.702,3.402,1.702h46.312c-0.032,0.209-0.064,0.417-0.064,0.635v103.34
		c0,8.967,4.078,16.997,10.475,22.342H22.296C19.125,488.273,16.546,485.694,16.546,482.523z M469.62,297.865
		c3.171,0,5.75,2.579,5.75,5.75v153.658h-75.608c-2.348,0-4.25,1.902-4.25,4.25c0,2.348,1.902,4.25,4.25,4.25h75.608v16.75
		c0,3.171-2.579,5.75-5.75,5.75h-98.725c6.395-5.345,10.474-13.375,10.474-22.342v-103.34c0-0.218-0.032-0.426-0.064-0.635h46.311
		c1.339,0,2.6-0.631,3.401-1.702c0.803-1.071,1.054-2.459,0.677-3.743l-17.191-58.646H469.62z M435.102,269.549
		c-6.741,6.565-17.567,6.422-24.103-0.289l-7.049-7.389l-20.535-70.049l52.007,53.594
		C441.986,252.158,441.843,262.984,435.102,269.549z M473.119,181.648c-0.938,2.012-3.499,4.328-5.883,6.33
		c-2.382,2.002-5.105,4.125-7.249,4.701c-1.033,0.279-2.101,0.361-3.778-1.638c-2.682-3.192-6.244-11.163-6.914-17.429
		c2.836-1.196,5.23-3.232,6.888-5.789c6.057,1.742,13.296,6.628,15.978,9.819C473.838,179.642,473.571,180.678,473.119,181.648z
		 M480.204,155.383c-0.095,1.065-0.384,2.097-2.839,2.983c-3.922,1.419-12.648,2.017-18.764,0.481
		c-0.146-3.163-1.254-6.072-3.047-8.448c3.721-5.089,10.806-10.206,14.728-11.623c2.494-0.905,4.465-1.614,8.006,8.181
		C479.347,149.883,480.402,153.173,480.204,155.383z"/>
</g>
<g>
</g>
<g>
</g>
<g>
</g>
<g>
</g>
<g>
</g>
<g>
</g>
<g>
</g>
<g>
</g>
<g>
</g>
<g>
</g>
<g>
</g>
<g>
</g>
<g>
</g>
<g>
</g>
<g>
</g>
</svg>
