<?xml version="1.0" encoding="iso-8859-1"?>
<!-- Generator: Adobe Illustrator 16.0.0, SVG Export Plug-In . SVG Version: 6.00 Build 0)  -->
<!DOCTYPE svg PUBLIC "-//W3C//DTD SVG 1.1//EN" "http://www.w3.org/Graphics/SVG/1.1/DTD/svg11.dtd">
<svg version="1.1" id="Capa_1" xmlns="http://www.w3.org/2000/svg" xmlns:xlink="http://www.w3.org/1999/xlink" x="0px" y="0px"
	 width="245.101px" height="245.101px" viewBox="0 0 245.101 245.101" style="enable-background:new 0 0 245.101 245.101;"
	 xml:space="preserve">
<g>
	<g>
		<path d="M243.783,143.584c-20.343-2.913-32.619-23.138-51.614-28.833l4.353-16.794l8.863,2.295
			c0.652,0.171,1.322-0.223,1.491-0.876l1.833-7.064c0.167-0.653-0.228-1.321-0.88-1.491l-8.862-2.297l1.943-7.503
			c0.169-0.653-0.225-1.321-0.878-1.492l-7.063-1.831c-0.654-0.169-1.321,0.224-1.491,0.877l-1.944,7.504l-8.862-2.297
			c-0.654-0.17-1.321,0.224-1.491,0.875l-1.831,7.067c-0.169,0.651,0.224,1.321,0.877,1.491l8.863,2.296l-4.624,17.845
			c-13.421,0.207-25.861,5.457-38.293,10.543l-6.084-23.476l12.278-3.182c0.905-0.235,1.449-1.162,1.217-2.065l-2.537-9.79
			c-0.235-0.903-1.16-1.448-2.065-1.214l-12.279,3.184l-2.693-10.396c-0.235-0.905-1.159-1.449-2.065-1.216l-9.787,2.537
			c-0.906,0.237-1.451,1.162-1.217,2.067l2.694,10.395l-12.28,3.182c-0.904,0.235-1.449,1.162-1.217,2.066l2.539,9.787
			c0.232,0.906,1.16,1.451,2.066,1.214l12.278-3.18l6.479,24.996c-2.351,0.82-4.713,1.574-7.092,2.224
			c-9.693,2.646-18.699,2.521-27.138-3.246c-6.353-4.339-11.662-10.161-17.069-15.692l3.525-13.601l6.026,1.561
			c0.444,0.116,0.899-0.151,1.014-0.596l1.246-4.804c0.114-0.443-0.153-0.898-0.597-1.014l-6.027-1.562l1.322-5.102
			c0.115-0.444-0.152-0.898-0.597-1.015l-4.804-1.245c-0.444-0.114-0.898,0.152-1.014,0.597l-1.322,5.103l-6.026-1.563
			c-0.444-0.115-0.898,0.152-1.014,0.596l-1.245,4.805c-0.114,0.443,0.152,0.898,0.597,1.014l6.026,1.562l-2.567,9.906
			c-3.844-3.574-8.067-6.993-12.859-9.112l-6.583-25.399l13.922-3.608c1.025-0.265,1.643-1.315,1.377-2.34l-2.875-11.098
			c-0.266-1.025-1.316-1.644-2.342-1.377L51.46,57.41l-3.055-11.785c-0.266-1.025-1.315-1.643-2.341-1.378l-11.097,2.876
			c-1.025,0.267-1.644,1.316-1.378,2.342l3.055,11.785l-13.922,3.607c-1.025,0.266-1.643,1.316-1.378,2.341l2.876,11.097
			c0.266,1.025,1.316,1.644,2.342,1.377l13.921-3.607l5.396,20.819c-2.708,1.044-5.177,2.665-7.18,4.738
			c-9.727,10.069-16.769,20.069-32.929,43.771c-27.763,40.718,52.02,2.832,82.983,31.299c7,6,7,14,15.5,19.5
			c16.5,10,33.5,2,49.5-4.5c19.5-7.5,38.844-20.562,57.5-30c2.799-1.416,31.808-14.752,32.094-14.888
			C245.556,145.753,245.653,143.852,243.783,143.584z"/>
	</g>
</g>
<g>
</g>
<g>
</g>
<g>
</g>
<g>
</g>
<g>
</g>
<g>
</g>
<g>
</g>
<g>
</g>
<g>
</g>
<g>
</g>
<g>
</g>
<g>
</g>
<g>
</g>
<g>
</g>
<g>
</g>
</svg>
