<?xml version="1.0" encoding="iso-8859-1"?>
<!-- Generator: Adobe Illustrator 16.0.0, SVG Export Plug-In . SVG Version: 6.00 Build 0)  -->
<!DOCTYPE svg PUBLIC "-//W3C//DTD SVG 1.1//EN" "http://www.w3.org/Graphics/SVG/1.1/DTD/svg11.dtd">
<svg version="1.1" id="Capa_1" xmlns="http://www.w3.org/2000/svg" xmlns:xlink="http://www.w3.org/1999/xlink" x="0px" y="0px"
	 width="61.114px" height="61.114px" viewBox="0 0 61.114 61.114" style="enable-background:new 0 0 61.114 61.114;"
	 xml:space="preserve">
<g>
	<g>
		<path d="M45.507,40.181c-3.754,1.176-7.732,1.296-11.46-0.175c-3.413-1.348-6.008-4.152-8.215-6.979
			c-2.827-3.618-5.262-7.536-8.025-11.204c-3.275-4.346-6.734-8.544-10.196-12.741C4.959,10.792-3.491,17.186,1.6,26.593
			c5.989,11.068,2.083,24.088,2.995,24.74c0.912,0.65,2.734,0.13,2.734,0.13c-1.562-18.62,0-20.183,0-20.183
			c12.5-4.296,13.802,20.183,28.125,20.834c14.322,0.65,25.65-4.665,25.65-4.665C61.485,42.925,48.881,43.357,45.507,40.181z"/>
		<path d="M33.341,38.527c3.601,1.812,7.546,1.876,11.319,0.817c-3.193-2.327-10.262,2.306-18.712-10.798
			C18.144,16.442,10.641,10.34,8.804,8.945c5.64,6.949,11.043,13.994,16.255,21.289C27.292,33.359,29.818,36.756,33.341,38.527z"/>
	</g>
</g>
<g>
</g>
<g>
</g>
<g>
</g>
<g>
</g>
<g>
</g>
<g>
</g>
<g>
</g>
<g>
</g>
<g>
</g>
<g>
</g>
<g>
</g>
<g>
</g>
<g>
</g>
<g>
</g>
<g>
</g>
</svg>
