<?xml version="1.0" encoding="iso-8859-1"?>
<!-- Generator: Adobe Illustrator 16.0.0, SVG Export Plug-In . SVG Version: 6.00 Build 0)  -->
<!DOCTYPE svg PUBLIC "-//W3C//DTD SVG 1.1//EN" "http://www.w3.org/Graphics/SVG/1.1/DTD/svg11.dtd">
<svg version="1.1" id="Capa_1" xmlns="http://www.w3.org/2000/svg" xmlns:xlink="http://www.w3.org/1999/xlink" x="0px" y="0px"
	 width="30.144px" height="30.143px" viewBox="0 0 30.144 30.143" style="enable-background:new 0 0 30.144 30.143;"
	 xml:space="preserve">
<g>
	<path d="M25.962,11.027c0,0-2.741-0.955-5.742-0.44c1.048-0.925,2.249-2.092,2.402-2.707c0,0,0.606-1.539-1.212-2.798
		c0,0-3.592-2.61-5.407-2.937c-0.952-0.172-3.123-0.233-3.822-0.094c0,0,1.119-1.025-0.652-1.864c0,0-2.696-0.989-3.356,1.585
		C8.057,2.223,7.986,3.543,8.406,4.008l0.653-0.465c0,0,0.746,1.305,2.004,1.117c0,0,0.188,2.217,0.466,2.704
		c0.173,0.304,0.212,1.09,0.046,1.397c-0.041,0.078-0.122,0.158-0.216,0.242c-1.583-1.213-4.83-3.57-6.671-3.998L3.286,3.122
		L3.081,4.456c0,0-0.855-1.471-0.821-1.334c0.034,0.137,0.103,1.779,0.103,1.779S1.405,7.055,1.098,7.432
		c0,0-1.745,2.223-0.684,3.146c0,0,0.71,0.427,1.345-0.198c0.758,0.17,2.055,0.383,3.812,0.436c0.541,1.386,1.389,3.182,2.333,3.765
		c0,0-0.376,2.941,1.505,4.311c0,0,0.41,3.66,0.821,5.541c0,0,0.41,3.558-0.65,4.104c0,0-1.061,0.582-0.923,0.992
		c0,0,0.103,0.137,1.231,0.137c0,0,0.923,0.174,0.718-0.752c0,0-0.103-0.613,0.376-0.958c0,0,0.308-0.958,0.205-2.563
		c0,0-0.103-1.676,0.308-1.268c0,0,0.582,1.369,0.582,2.771c0,0-0.205,1.265-0.65,1.504c0,0-0.958,0.89-0.205,0.924h1.676
		c0,0,0.24-0.377-0.205-1.062c0,0-0.068-0.514,0.205-0.614c0,0,0.205-1.402-0.308-2.907c0,0-1.231-5.608,0.342-5.917
		c0,0,5.371,0.686,7.354-1.023c0,0,1.301-0.582,1.812,0.031c0,0,0.925,2.941,1.711,4.447c0,0,0.513,3.762,0.103,4.754
		c-0.41,0.991-0.958,1.813-1.505,2.053c0,0-0.685,0.648-0.034,0.648h1.643c0,0,0.548-0.239,0.138-0.854c0,0-0.205-0.41,0.309-0.787
		c0,0,0.685-0.104,0.648-2.225c0,0,0.82-2.838,0.309-4.001c0,0-0.273-0.479,0.171-0.411c0,0,1.025,2.155,1.676,2.771
		c0,0,0.24,3.216,0.411,3.897c0,0,0.138,0.41-0.104,0.72c0,0-1.3,1.062-0.547,1.299h1.368c0,0,0.82-0.103,0.272-1.366
		c0,0-0.068-0.582,0.238-0.925c0,0,0.069-1.299-0.272-2.053c0,0,0.444-2.873-1.025-4.444c0,0-1.438-1.095-0.685-3.899
		c0,0,1.648-2.966,0.272-4.686c-0.137-0.172,0-0.172,0-0.172s0.992,0.479,1.197,2.838c0,0-1.096,4.722,1.196,6.568
		c0,0-0.309-2.941,0.342-4.14C29.928,17.868,31.229,12.36,25.962,11.027z M15.675,9.23l0.141-1.771c0,0,1.864,0.095,0.886,1.398
		c0,0-1.016,1.103-1.722,2.19c-0.584-0.104-1.165-0.281-1.688-0.558C14.254,10.357,15.391,10.029,15.675,9.23z M13.344,6.783
		l0.723,0.095c0,0,0.128,1.021,0.046,1.258c-0.103,0.302-1.002,0.513-1.002,0.513C13.391,8.368,13.344,6.783,13.344,6.783z
		 M2.337,9.985c0.458-0.045,1.351-0.227,1.7-0.977c0,0,0.513-0.444,0.924,0.067c0,0,0.154,0.517,0.416,1.231
		C4.079,10.259,3.055,10.118,2.337,9.985z"/>
</g>
<g>
</g>
<g>
</g>
<g>
</g>
<g>
</g>
<g>
</g>
<g>
</g>
<g>
</g>
<g>
</g>
<g>
</g>
<g>
</g>
<g>
</g>
<g>
</g>
<g>
</g>
<g>
</g>
<g>
</g>
</svg>
