<?xml version="1.0" encoding="iso-8859-1"?>
<!-- Generator: Adobe Illustrator 16.0.0, SVG Export Plug-In . SVG Version: 6.00 Build 0)  -->
<!DOCTYPE svg PUBLIC "-//W3C//DTD SVG 1.1//EN" "http://www.w3.org/Graphics/SVG/1.1/DTD/svg11.dtd">
<svg version="1.1" id="Capa_1" xmlns="http://www.w3.org/2000/svg" xmlns:xlink="http://www.w3.org/1999/xlink" x="0px" y="0px"
	 width="48.886px" height="48.886px" viewBox="0 0 48.886 48.886" style="enable-background:new 0 0 48.886 48.886;"
	 xml:space="preserve">
<g>
	<path d="M26.452,33.695c0,0.631-1.281,1.145-2.86,1.145c-1.58,0-2.858-0.514-2.858-1.145c0-0.635,1.278-1.146,2.858-1.146
		C25.171,32.55,26.452,33.061,26.452,33.695z M16.856,26.716c-1.232,0-2.234,1.002-2.234,2.233c0,1.232,1.002,2.236,2.234,2.236
		s2.236-1.004,2.236-2.236C19.092,27.718,18.088,26.716,16.856,26.716z M30.329,26.716c-1.232,0-2.236,1.002-2.236,2.233
		c0,1.232,1.004,2.236,2.236,2.236s2.234-1.004,2.234-2.236C32.563,27.718,31.562,26.716,30.329,26.716z M44.948,32.429
		c0,2.927-1.838,5.408-4.361,6.242c-3.24,6.207-9.748,10.215-16.964,10.215c-7.211,0-13.707-3.998-16.949-10.19
		c-2.563-0.81-4.436-3.312-4.436-6.267c0-2.12,0.967-4.012,2.461-5.207c0.227-2.104,0.696-4.592,1.494-6.346
		c0.021-0.05,0.104-0.229,0.244-0.5c0.594-0.675,1.296-1.309,2.063-1.652c5.98-2.692,10.435-0.083,13.381,1.644
		c4.951,2.9,8.352,3.845,10.983,3.845c2.49,0,4.295-0.846,6.065-1.676l0.437-0.203c0.539-0.25,1.423-0.619,2.396-1.018l-0.287,0.643
		c0.557,1.646,0.904,3.611,1.084,5.318C44.011,28.477,44.948,30.339,44.948,32.429z M40.948,32.429c0-1.401-0.986-2.536-2.221-2.541
		c-0.338,0.582-0.729,1.142-1.17,1.675c0.412-1.416,0.637-2.873,0.637-4.318c0-0.479-0.031-0.938-0.08-1.393
		c-1.152,0.364-2.914,0.76-5.131,0.76c-3.787,0-7.605-1.113-11.356-3.313l-0.357-0.209c-1.969-1.16-4.663-2.75-7.73-2.75
		c-0.904,0-1.787,0.146-2.666,0.416c-0.076,0.111-0.166,0.232-0.231,0.336c-1.05,1.73-1.65,3.789-1.65,6.151
		c0,1.445,0.228,2.902,0.64,4.318c-0.442-0.533-0.832-1.094-1.172-1.676c-1.23,0.002-2.221,1.141-2.221,2.543
		s0.99,2.539,2.223,2.539c0.31,0,0.603-0.07,0.867-0.197c2.016,5.879,7.648,10.115,14.295,10.115
		c6.641,0,12.268-4.229,14.292-10.096c0.25,0.111,0.523,0.178,0.812,0.178C39.958,34.97,40.948,33.834,40.948,32.429z M31.735,7.16
		c-0.35,0-0.635,0.285-0.635,0.637c0,0.35,0.285,0.633,0.635,0.633c0.352,0,0.637-0.283,0.637-0.633
		C32.372,7.445,32.087,7.16,31.735,7.16z M46.517,10.694l-3.58,7.989c-1.643,0.654-3.484,1.404-4.414,1.836l-0.439,0.206
		c-3.473,1.626-6.469,3.028-15.19-2.082C19.79,16.825,14.6,13.783,7.678,16.9c-0.475,0.214-0.918,0.495-1.329,0.813L5.262,5.593
		C5.204,4.944,5.573,4.33,6.176,4.077C6.572,3.911,15.991,0,26.2,0c9.158,0,15.949,3.104,20.184,9.229
		C46.681,9.66,46.731,10.214,46.517,10.694z M36.704,13.832c-0.379-0.16-0.82,0.014-0.984,0.396c-0.739,1.741-1.916,2.882-3.231,3.2
		v-5.025h1.031c0.414,0,0.75-0.336,0.75-0.75s-0.336-0.75-0.75-0.75h-1.031V9.786c0.81-0.305,1.388-1.077,1.388-1.989
		c0-1.179-0.959-2.137-2.138-2.137c-1.178,0-2.136,0.958-2.136,2.137c0,0.912,0.578,1.687,1.385,1.99v1.116h-1.029
		c-0.414,0-0.75,0.336-0.75,0.75s0.336,0.75,0.75,0.75h1.029v5.024c-1.314-0.318-2.49-1.459-3.23-3.2
		c-0.164-0.382-0.606-0.556-0.983-0.396c-0.381,0.161-0.559,0.603-0.396,0.983c0.996,2.339,2.686,3.837,4.612,4.147v0.107
		c0,0.414,0.336,0.75,0.75,0.75s0.75-0.336,0.75-0.75v-0.105c1.929-0.312,3.617-1.81,4.613-4.147
		C37.263,14.433,37.085,13.993,36.704,13.832z"/>
</g>
<g>
</g>
<g>
</g>
<g>
</g>
<g>
</g>
<g>
</g>
<g>
</g>
<g>
</g>
<g>
</g>
<g>
</g>
<g>
</g>
<g>
</g>
<g>
</g>
<g>
</g>
<g>
</g>
<g>
</g>
</svg>
